<mxfile host="65bd71144e">
    <diagram name="Page-1" id="SsuF13_C3aySYE1LdbN4">
        <mxGraphModel dx="461" dy="674" grid="1" gridSize="10" guides="1" tooltips="1" connect="1" arrows="1" fold="1" page="1" pageScale="1" pageWidth="850" pageHeight="1100" math="0" shadow="0">
            <root>
                <mxCell id="0"/>
                <mxCell id="1" parent="0"/>
                <mxCell id="yxxKlvif9OGhSchaogqb-266" value="&lt;b&gt;S&lt;/b&gt;core Commit" style="shape=umlFrame;whiteSpace=wrap;html=1;pointerEvents=0;width=200;height=30;" parent="1" vertex="1">
                    <mxGeometry x="10" y="1752.5" width="790" height="617.5" as="geometry"/>
                </mxCell>
                <mxCell id="yxxKlvif9OGhSchaogqb-140" value="add collaborator" style="shape=umlFrame;whiteSpace=wrap;html=1;pointerEvents=0;width=120;height=30;" parent="1" vertex="1">
                    <mxGeometry x="30" y="870" width="780" height="360" as="geometry"/>
                </mxCell>
                <mxCell id="pGpMaRgbsiMrkL-crF_X-93" value="Manual Evaluation" style="shape=umlFrame;whiteSpace=wrap;html=1;pointerEvents=0;width=219;height=27;" parent="1" vertex="1">
                    <mxGeometry x="10" y="2810" width="790" height="510" as="geometry"/>
                </mxCell>
                <mxCell id="pGpMaRgbsiMrkL-crF_X-26" value="Look at Tournament Leaderboard" style="shape=umlFrame;whiteSpace=wrap;html=1;pointerEvents=0;width=200;height=30;" parent="1" vertex="1">
                    <mxGeometry x="11" y="2410" width="499" height="350" as="geometry"/>
                </mxCell>
                <mxCell id="yxxKlvif9OGhSchaogqb-205" value="Subscribe to Tournament" style="shape=umlFrame;whiteSpace=wrap;html=1;pointerEvents=0;width=180;height=32;" parent="1" vertex="1">
                    <mxGeometry x="10" y="1318" width="380" height="392" as="geometry"/>
                </mxCell>
                <mxCell id="yxxKlvif9OGhSchaogqb-132" value="CreateTournament" style="shape=umlFrame;whiteSpace=wrap;html=1;pointerEvents=0;width=110;height=30;" parent="1" vertex="1">
                    <mxGeometry x="10" y="410" width="820" height="890" as="geometry"/>
                </mxCell>
                <mxCell id="yxxKlvif9OGhSchaogqb-60" value="Sign Up" style="shape=umlFrame;whiteSpace=wrap;html=1;pointerEvents=0;" parent="1" vertex="1">
                    <mxGeometry x="10" y="60" width="470" height="260" as="geometry"/>
                </mxCell>
                <mxCell id="yxxKlvif9OGhSchaogqb-23" value="client browser" style="shape=umlLifeline;perimeter=lifelinePerimeter;whiteSpace=wrap;html=1;container=1;dropTarget=0;collapsible=0;recursiveResize=0;outlineConnect=0;portConstraint=eastwest;newEdgeStyle={&quot;curved&quot;:0,&quot;rounded&quot;:0};" parent="1" vertex="1">
                    <mxGeometry x="30" y="100" width="100" height="200" as="geometry"/>
                </mxCell>
                <mxCell id="yxxKlvif9OGhSchaogqb-38" value="" style="html=1;points=[[0,0,0,0,5],[0,0.5,0,0,0],[0,1,0,0,-5],[1,0,0,0,5],[1,0.5,0,0,0],[1,1,0,0,-5]];perimeter=orthogonalPerimeter;outlineConnect=0;targetShapes=umlLifeline;portConstraint=eastwest;newEdgeStyle={&quot;curved&quot;:0,&quot;rounded&quot;:0};" parent="yxxKlvif9OGhSchaogqb-23" vertex="1">
                    <mxGeometry x="45" y="60" width="10" height="120" as="geometry"/>
                </mxCell>
                <mxCell id="yxxKlvif9OGhSchaogqb-27" value="API Gateway" style="shape=umlLifeline;perimeter=lifelinePerimeter;whiteSpace=wrap;html=1;container=1;dropTarget=0;collapsible=0;recursiveResize=0;outlineConnect=0;portConstraint=eastwest;newEdgeStyle={&quot;curved&quot;:0,&quot;rounded&quot;:0};" parent="1" vertex="1">
                    <mxGeometry x="140" y="100" width="100" height="200" as="geometry"/>
                </mxCell>
                <mxCell id="yxxKlvif9OGhSchaogqb-42" value="" style="html=1;points=[[0,0,0,0,5],[0,0.5,0,0,0],[0,1,0,0,-5],[1,0,0,0,5],[1,0.5,0,0,0],[1,1,0,0,-5]];perimeter=orthogonalPerimeter;outlineConnect=0;targetShapes=umlLifeline;portConstraint=eastwest;newEdgeStyle={&quot;curved&quot;:0,&quot;rounded&quot;:0};" parent="yxxKlvif9OGhSchaogqb-27" vertex="1">
                    <mxGeometry x="45" y="60" width="10" height="110" as="geometry"/>
                </mxCell>
                <mxCell id="yxxKlvif9OGhSchaogqb-36" style="edgeStyle=orthogonalEdgeStyle;rounded=0;orthogonalLoop=1;jettySize=auto;html=1;curved=0;exitX=1;exitY=0;exitDx=0;exitDy=5;exitPerimeter=0;" parent="1" edge="1">
                    <mxGeometry relative="1" as="geometry">
                        <mxPoint x="86" y="170" as="sourcePoint"/>
                        <mxPoint x="184" y="170" as="targetPoint"/>
                    </mxGeometry>
                </mxCell>
                <mxCell id="yxxKlvif9OGhSchaogqb-37" value="post: /user/create?params" style="edgeLabel;html=1;align=center;verticalAlign=middle;resizable=0;points=[];" parent="yxxKlvif9OGhSchaogqb-36" vertex="1" connectable="0">
                    <mxGeometry x="-0.1916" relative="1" as="geometry">
                        <mxPoint x="8" y="-10" as="offset"/>
                    </mxGeometry>
                </mxCell>
                <mxCell id="yxxKlvif9OGhSchaogqb-43" value="User Services" style="shape=umlLifeline;perimeter=lifelinePerimeter;whiteSpace=wrap;html=1;container=1;dropTarget=0;collapsible=0;recursiveResize=0;outlineConnect=0;portConstraint=eastwest;newEdgeStyle={&quot;curved&quot;:0,&quot;rounded&quot;:0};" parent="1" vertex="1">
                    <mxGeometry x="250" y="100" width="100" height="200" as="geometry"/>
                </mxCell>
                <mxCell id="yxxKlvif9OGhSchaogqb-44" value="" style="html=1;points=[[0,0,0,0,5],[0,0.5,0,0,0],[0,1,0,0,-5],[1,0,0,0,5],[1,0.5,0,0,0],[1,1,0,0,-5]];perimeter=orthogonalPerimeter;outlineConnect=0;targetShapes=umlLifeline;portConstraint=eastwest;newEdgeStyle={&quot;curved&quot;:0,&quot;rounded&quot;:0};" parent="yxxKlvif9OGhSchaogqb-43" vertex="1">
                    <mxGeometry x="45" y="70" width="10" height="90" as="geometry"/>
                </mxCell>
                <mxCell id="yxxKlvif9OGhSchaogqb-45" style="edgeStyle=orthogonalEdgeStyle;rounded=0;orthogonalLoop=1;jettySize=auto;html=1;curved=0;exitX=1;exitY=0;exitDx=0;exitDy=5;exitPerimeter=0;" parent="1" edge="1">
                    <mxGeometry relative="1" as="geometry">
                        <mxPoint x="197" y="183" as="sourcePoint"/>
                        <mxPoint x="295" y="183" as="targetPoint"/>
                    </mxGeometry>
                </mxCell>
                <mxCell id="yxxKlvif9OGhSchaogqb-46" value="req" style="edgeLabel;html=1;align=center;verticalAlign=middle;resizable=0;points=[];" parent="yxxKlvif9OGhSchaogqb-45" vertex="1" connectable="0">
                    <mxGeometry x="-0.1916" relative="1" as="geometry">
                        <mxPoint x="8" y="-10" as="offset"/>
                    </mxGeometry>
                </mxCell>
                <mxCell id="yxxKlvif9OGhSchaogqb-47" value="DBMS Application" style="shape=umlLifeline;perimeter=lifelinePerimeter;whiteSpace=wrap;html=1;container=1;dropTarget=0;collapsible=0;recursiveResize=0;outlineConnect=0;portConstraint=eastwest;newEdgeStyle={&quot;curved&quot;:0,&quot;rounded&quot;:0};" parent="1" vertex="1">
                    <mxGeometry x="360" y="100" width="100" height="200" as="geometry"/>
                </mxCell>
                <mxCell id="yxxKlvif9OGhSchaogqb-48" value="" style="html=1;points=[[0,0,0,0,5],[0,0.5,0,0,0],[0,1,0,0,-5],[1,0,0,0,5],[1,0.5,0,0,0],[1,1,0,0,-5]];perimeter=orthogonalPerimeter;outlineConnect=0;targetShapes=umlLifeline;portConstraint=eastwest;newEdgeStyle={&quot;curved&quot;:0,&quot;rounded&quot;:0};" parent="yxxKlvif9OGhSchaogqb-47" vertex="1">
                    <mxGeometry x="45" y="80" width="10" height="60" as="geometry"/>
                </mxCell>
                <mxCell id="yxxKlvif9OGhSchaogqb-49" style="edgeStyle=orthogonalEdgeStyle;rounded=0;orthogonalLoop=1;jettySize=auto;html=1;curved=0;exitX=1;exitY=0;exitDx=0;exitDy=5;exitPerimeter=0;" parent="1" edge="1">
                    <mxGeometry relative="1" as="geometry">
                        <mxPoint x="306" y="193" as="sourcePoint"/>
                        <mxPoint x="404" y="193" as="targetPoint"/>
                    </mxGeometry>
                </mxCell>
                <mxCell id="yxxKlvif9OGhSchaogqb-50" value="create" style="edgeLabel;html=1;align=center;verticalAlign=middle;resizable=0;points=[];" parent="yxxKlvif9OGhSchaogqb-49" vertex="1" connectable="0">
                    <mxGeometry x="-0.1916" relative="1" as="geometry">
                        <mxPoint x="8" y="-10" as="offset"/>
                    </mxGeometry>
                </mxCell>
                <mxCell id="yxxKlvif9OGhSchaogqb-51" style="edgeStyle=orthogonalEdgeStyle;rounded=0;orthogonalLoop=1;jettySize=auto;html=1;curved=0;exitX=1;exitY=0;exitDx=0;exitDy=5;exitPerimeter=0;endArrow=none;endFill=0;startArrow=classic;startFill=1;dashed=1;" parent="1" edge="1">
                    <mxGeometry relative="1" as="geometry">
                        <mxPoint x="307" y="234" as="sourcePoint"/>
                        <mxPoint x="405" y="234" as="targetPoint"/>
                    </mxGeometry>
                </mxCell>
                <mxCell id="yxxKlvif9OGhSchaogqb-52" value="ok" style="edgeLabel;html=1;align=center;verticalAlign=middle;resizable=0;points=[];" parent="yxxKlvif9OGhSchaogqb-51" vertex="1" connectable="0">
                    <mxGeometry x="-0.1916" relative="1" as="geometry">
                        <mxPoint x="8" y="-10" as="offset"/>
                    </mxGeometry>
                </mxCell>
                <mxCell id="yxxKlvif9OGhSchaogqb-53" style="edgeStyle=orthogonalEdgeStyle;rounded=0;orthogonalLoop=1;jettySize=auto;html=1;curved=0;exitX=1;exitY=0;exitDx=0;exitDy=5;exitPerimeter=0;endArrow=none;endFill=0;startArrow=classic;startFill=1;dashed=1;" parent="1" edge="1">
                    <mxGeometry relative="1" as="geometry">
                        <mxPoint x="195" y="250" as="sourcePoint"/>
                        <mxPoint x="293" y="250" as="targetPoint"/>
                    </mxGeometry>
                </mxCell>
                <mxCell id="yxxKlvif9OGhSchaogqb-54" value="&lt;div&gt;resp 200+&lt;/div&gt;&lt;div&gt;hyptxt(tournPage)&lt;br&gt;&lt;/div&gt;" style="edgeLabel;html=1;align=center;verticalAlign=middle;resizable=0;points=[];" parent="yxxKlvif9OGhSchaogqb-53" vertex="1" connectable="0">
                    <mxGeometry x="-0.1916" relative="1" as="geometry">
                        <mxPoint x="8" y="-10" as="offset"/>
                    </mxGeometry>
                </mxCell>
                <mxCell id="yxxKlvif9OGhSchaogqb-55" style="edgeStyle=orthogonalEdgeStyle;rounded=0;orthogonalLoop=1;jettySize=auto;html=1;curved=0;exitX=1;exitY=0;exitDx=0;exitDy=5;exitPerimeter=0;endArrow=none;endFill=0;startArrow=classic;startFill=1;dashed=1;" parent="1" edge="1">
                    <mxGeometry relative="1" as="geometry">
                        <mxPoint x="85" y="264" as="sourcePoint"/>
                        <mxPoint x="183" y="264" as="targetPoint"/>
                    </mxGeometry>
                </mxCell>
                <mxCell id="yxxKlvif9OGhSchaogqb-56" value="response" style="edgeLabel;html=1;align=center;verticalAlign=middle;resizable=0;points=[];" parent="yxxKlvif9OGhSchaogqb-55" vertex="1" connectable="0">
                    <mxGeometry x="-0.1916" relative="1" as="geometry">
                        <mxPoint x="8" y="-10" as="offset"/>
                    </mxGeometry>
                </mxCell>
                <mxCell id="yxxKlvif9OGhSchaogqb-61" value="client browser" style="shape=umlLifeline;perimeter=lifelinePerimeter;whiteSpace=wrap;html=1;container=1;dropTarget=0;collapsible=0;recursiveResize=0;outlineConnect=0;portConstraint=eastwest;newEdgeStyle={&quot;curved&quot;:0,&quot;rounded&quot;:0};" parent="1" vertex="1">
                    <mxGeometry x="30" y="450" width="100" height="760" as="geometry"/>
                </mxCell>
                <mxCell id="yxxKlvif9OGhSchaogqb-102" value="" style="html=1;points=[[0,0,0,0,5],[0,1,0,0,-5],[1,0,0,0,5],[1,1,0,0,-5]];perimeter=orthogonalPerimeter;outlineConnect=0;targetShapes=umlLifeline;portConstraint=eastwest;newEdgeStyle={&quot;curved&quot;:0,&quot;rounded&quot;:0};" parent="yxxKlvif9OGhSchaogqb-61" vertex="1">
                    <mxGeometry x="45" y="60" width="10" height="350" as="geometry"/>
                </mxCell>
                <mxCell id="yxxKlvif9OGhSchaogqb-141" value="" style="html=1;points=[[0,0,0,0,5],[0,1,0,0,-5],[1,0,0,0,5],[1,1,0,0,-5]];perimeter=orthogonalPerimeter;outlineConnect=0;targetShapes=umlLifeline;portConstraint=eastwest;newEdgeStyle={&quot;curved&quot;:0,&quot;rounded&quot;:0};" parent="yxxKlvif9OGhSchaogqb-61" vertex="1">
                    <mxGeometry x="45" y="453" width="10" height="197" as="geometry"/>
                </mxCell>
                <mxCell id="yxxKlvif9OGhSchaogqb-63" value="API Gateway" style="shape=umlLifeline;perimeter=lifelinePerimeter;whiteSpace=wrap;html=1;container=1;dropTarget=0;collapsible=0;recursiveResize=0;outlineConnect=0;portConstraint=eastwest;newEdgeStyle={&quot;curved&quot;:0,&quot;rounded&quot;:0};" parent="1" vertex="1">
                    <mxGeometry x="140" y="450" width="100" height="760" as="geometry"/>
                </mxCell>
                <mxCell id="yxxKlvif9OGhSchaogqb-104" value="" style="html=1;points=[[0,0,0,0,5],[0,1,0,0,-5],[1,0,0,0,5],[1,1,0,0,-5]];perimeter=orthogonalPerimeter;outlineConnect=0;targetShapes=umlLifeline;portConstraint=eastwest;newEdgeStyle={&quot;curved&quot;:0,&quot;rounded&quot;:0};" parent="yxxKlvif9OGhSchaogqb-63" vertex="1">
                    <mxGeometry x="45" y="60" width="10" height="190" as="geometry"/>
                </mxCell>
                <mxCell id="yxxKlvif9OGhSchaogqb-105" value="" style="html=1;points=[[0,0,0,0,5],[0,1,0,0,-5],[1,0,0,0,5],[1,1,0,0,-5]];perimeter=orthogonalPerimeter;outlineConnect=0;targetShapes=umlLifeline;portConstraint=eastwest;newEdgeStyle={&quot;curved&quot;:0,&quot;rounded&quot;:0};" parent="yxxKlvif9OGhSchaogqb-63" vertex="1">
                    <mxGeometry x="51" y="93" width="10" height="40" as="geometry"/>
                </mxCell>
                <mxCell id="yxxKlvif9OGhSchaogqb-106" value="checkAuth" style="html=1;align=left;spacingLeft=2;endArrow=block;rounded=0;edgeStyle=orthogonalEdgeStyle;curved=0;rounded=0;" parent="yxxKlvif9OGhSchaogqb-63" target="yxxKlvif9OGhSchaogqb-105" edge="1">
                    <mxGeometry relative="1" as="geometry">
                        <mxPoint x="56" y="73" as="sourcePoint"/>
                        <Array as="points">
                            <mxPoint x="86" y="103"/>
                        </Array>
                    </mxGeometry>
                </mxCell>
                <mxCell id="yxxKlvif9OGhSchaogqb-99" style="edgeStyle=orthogonalEdgeStyle;rounded=0;orthogonalLoop=1;jettySize=auto;html=1;curved=0;exitX=1;exitY=0;exitDx=0;exitDy=5;exitPerimeter=0;" parent="1" edge="1">
                    <mxGeometry relative="1" as="geometry">
                        <mxPoint x="86" y="518" as="sourcePoint"/>
                        <mxPoint x="184" y="518" as="targetPoint"/>
                    </mxGeometry>
                </mxCell>
                <mxCell id="yxxKlvif9OGhSchaogqb-100" value="post: /tournament/createT?params" style="edgeLabel;html=1;align=center;verticalAlign=middle;resizable=0;points=[];" parent="yxxKlvif9OGhSchaogqb-99" vertex="1" connectable="0">
                    <mxGeometry x="-0.1916" relative="1" as="geometry">
                        <mxPoint y="-10" as="offset"/>
                    </mxGeometry>
                </mxCell>
                <mxCell id="yxxKlvif9OGhSchaogqb-101" value="&lt;div&gt;Tournament&lt;/div&gt;&lt;div&gt;Service&lt;br&gt;&lt;/div&gt;" style="shape=umlLifeline;perimeter=lifelinePerimeter;whiteSpace=wrap;html=1;container=1;dropTarget=0;collapsible=0;recursiveResize=0;outlineConnect=0;portConstraint=eastwest;newEdgeStyle={&quot;curved&quot;:0,&quot;rounded&quot;:0};" parent="1" vertex="1">
                    <mxGeometry x="250" y="450" width="100" height="760" as="geometry"/>
                </mxCell>
                <mxCell id="yxxKlvif9OGhSchaogqb-109" value="" style="html=1;points=[[0,0,0,0,5],[0,1,0,0,-5],[1,0,0,0,5],[1,1,0,0,-5]];perimeter=orthogonalPerimeter;outlineConnect=0;targetShapes=umlLifeline;portConstraint=eastwest;newEdgeStyle={&quot;curved&quot;:0,&quot;rounded&quot;:0};" parent="yxxKlvif9OGhSchaogqb-101" vertex="1">
                    <mxGeometry x="45" y="133" width="10" height="127" as="geometry"/>
                </mxCell>
                <mxCell id="yxxKlvif9OGhSchaogqb-150" value="" style="html=1;points=[[0,0,0,0,5],[0,1,0,0,-5],[1,0,0,0,5],[1,1,0,0,-5]];perimeter=orthogonalPerimeter;outlineConnect=0;targetShapes=umlLifeline;portConstraint=eastwest;newEdgeStyle={&quot;curved&quot;:0,&quot;rounded&quot;:0};" parent="yxxKlvif9OGhSchaogqb-101" vertex="1">
                    <mxGeometry x="45" y="540" width="10" height="70" as="geometry"/>
                </mxCell>
                <mxCell id="yxxKlvif9OGhSchaogqb-107" style="edgeStyle=orthogonalEdgeStyle;rounded=0;orthogonalLoop=1;jettySize=auto;html=1;curved=0;exitX=1;exitY=0;exitDx=0;exitDy=5;exitPerimeter=0;" parent="1" edge="1">
                    <mxGeometry relative="1" as="geometry">
                        <mxPoint x="196" y="600" as="sourcePoint"/>
                        <mxPoint x="294" y="600" as="targetPoint"/>
                    </mxGeometry>
                </mxCell>
                <mxCell id="yxxKlvif9OGhSchaogqb-108" value="req" style="edgeLabel;html=1;align=center;verticalAlign=middle;resizable=0;points=[];" parent="yxxKlvif9OGhSchaogqb-107" vertex="1" connectable="0">
                    <mxGeometry x="-0.1916" relative="1" as="geometry">
                        <mxPoint x="1" y="-10" as="offset"/>
                    </mxGeometry>
                </mxCell>
                <mxCell id="yxxKlvif9OGhSchaogqb-110" value="DBMS Application" style="shape=umlLifeline;perimeter=lifelinePerimeter;whiteSpace=wrap;html=1;container=1;dropTarget=0;collapsible=0;recursiveResize=0;outlineConnect=0;portConstraint=eastwest;newEdgeStyle={&quot;curved&quot;:0,&quot;rounded&quot;:0};" parent="1" vertex="1">
                    <mxGeometry x="360" y="450" width="100" height="760" as="geometry"/>
                </mxCell>
                <mxCell id="yxxKlvif9OGhSchaogqb-111" value="" style="html=1;points=[[0,0,0,0,5],[0,1,0,0,-5],[1,0,0,0,5],[1,1,0,0,-5]];perimeter=orthogonalPerimeter;outlineConnect=0;targetShapes=umlLifeline;portConstraint=eastwest;newEdgeStyle={&quot;curved&quot;:0,&quot;rounded&quot;:0};" parent="yxxKlvif9OGhSchaogqb-110" vertex="1">
                    <mxGeometry x="45" y="150" width="10" height="60" as="geometry"/>
                </mxCell>
                <mxCell id="yxxKlvif9OGhSchaogqb-112" style="edgeStyle=orthogonalEdgeStyle;rounded=0;orthogonalLoop=1;jettySize=auto;html=1;curved=0;exitX=1;exitY=0;exitDx=0;exitDy=5;exitPerimeter=0;" parent="1" edge="1">
                    <mxGeometry relative="1" as="geometry">
                        <mxPoint x="306" y="616" as="sourcePoint"/>
                        <mxPoint x="404" y="616" as="targetPoint"/>
                    </mxGeometry>
                </mxCell>
                <mxCell id="yxxKlvif9OGhSchaogqb-113" value="addTournament(Educator)" style="edgeLabel;html=1;align=center;verticalAlign=middle;resizable=0;points=[];" parent="yxxKlvif9OGhSchaogqb-112" vertex="1" connectable="0">
                    <mxGeometry x="-0.1916" relative="1" as="geometry">
                        <mxPoint x="15" y="-10" as="offset"/>
                    </mxGeometry>
                </mxCell>
                <mxCell id="yxxKlvif9OGhSchaogqb-114" value="Message Broker" style="shape=umlLifeline;perimeter=lifelinePerimeter;whiteSpace=wrap;html=1;container=1;dropTarget=0;collapsible=0;recursiveResize=0;outlineConnect=0;portConstraint=eastwest;newEdgeStyle={&quot;curved&quot;:0,&quot;rounded&quot;:0};" parent="1" vertex="1">
                    <mxGeometry x="470" y="450" width="100" height="760" as="geometry"/>
                </mxCell>
                <mxCell id="yxxKlvif9OGhSchaogqb-115" value="" style="html=1;points=[[0,0,0,0,5],[0,1,0,0,-5],[1,0,0,0,5],[1,1,0,0,-5]];perimeter=orthogonalPerimeter;outlineConnect=0;targetShapes=umlLifeline;portConstraint=eastwest;newEdgeStyle={&quot;curved&quot;:0,&quot;rounded&quot;:0};" parent="yxxKlvif9OGhSchaogqb-114" vertex="1">
                    <mxGeometry x="45" y="230" width="10" height="70" as="geometry"/>
                </mxCell>
                <mxCell id="yxxKlvif9OGhSchaogqb-116" style="edgeStyle=orthogonalEdgeStyle;rounded=0;orthogonalLoop=1;jettySize=auto;html=1;curved=0;exitX=1;exitY=0;exitDx=0;exitDy=5;exitPerimeter=0;" parent="1" edge="1">
                    <mxGeometry relative="1" as="geometry">
                        <mxPoint x="307.27000000000004" y="690" as="sourcePoint"/>
                        <mxPoint x="512.72" y="690" as="targetPoint"/>
                    </mxGeometry>
                </mxCell>
                <mxCell id="yxxKlvif9OGhSchaogqb-117" value="write(TournamentTopic, msg: newTournament)" style="edgeLabel;html=1;align=center;verticalAlign=middle;resizable=0;points=[];" parent="yxxKlvif9OGhSchaogqb-116" vertex="1" connectable="0">
                    <mxGeometry x="-0.1916" relative="1" as="geometry">
                        <mxPoint x="15" y="-10" as="offset"/>
                    </mxGeometry>
                </mxCell>
                <mxCell id="yxxKlvif9OGhSchaogqb-118" value="Notification Service" style="shape=umlLifeline;perimeter=lifelinePerimeter;whiteSpace=wrap;html=1;container=1;dropTarget=0;collapsible=0;recursiveResize=0;outlineConnect=0;portConstraint=eastwest;newEdgeStyle={&quot;curved&quot;:0,&quot;rounded&quot;:0};" parent="1" vertex="1">
                    <mxGeometry x="580" y="450" width="100" height="760" as="geometry"/>
                </mxCell>
                <mxCell id="yxxKlvif9OGhSchaogqb-119" value="" style="html=1;points=[[0,0,0,0,5],[0,1,0,0,-5],[1,0,0,0,5],[1,1,0,0,-5]];perimeter=orthogonalPerimeter;outlineConnect=0;targetShapes=umlLifeline;portConstraint=eastwest;newEdgeStyle={&quot;curved&quot;:0,&quot;rounded&quot;:0};" parent="yxxKlvif9OGhSchaogqb-118" vertex="1">
                    <mxGeometry x="45" y="230" width="10" height="150" as="geometry"/>
                </mxCell>
                <mxCell id="yxxKlvif9OGhSchaogqb-120" style="edgeStyle=orthogonalEdgeStyle;rounded=0;orthogonalLoop=1;jettySize=auto;html=1;curved=0;exitX=1;exitY=0;exitDx=0;exitDy=5;exitPerimeter=0;endArrow=none;endFill=0;startArrow=classic;startFill=1;" parent="1" edge="1">
                    <mxGeometry relative="1" as="geometry">
                        <mxPoint x="527" y="710" as="sourcePoint"/>
                        <mxPoint x="625" y="710" as="targetPoint"/>
                    </mxGeometry>
                </mxCell>
                <mxCell id="yxxKlvif9OGhSchaogqb-121" value="read(TournamentTopic)" style="edgeLabel;html=1;align=center;verticalAlign=middle;resizable=0;points=[];" parent="yxxKlvif9OGhSchaogqb-120" vertex="1" connectable="0">
                    <mxGeometry x="-0.1916" relative="1" as="geometry">
                        <mxPoint x="15" y="-10" as="offset"/>
                    </mxGeometry>
                </mxCell>
                <mxCell id="yxxKlvif9OGhSchaogqb-122" style="edgeStyle=orthogonalEdgeStyle;rounded=0;orthogonalLoop=1;jettySize=auto;html=1;curved=0;exitX=1;exitY=0;exitDx=0;exitDy=5;exitPerimeter=0;endArrow=classic;endFill=1;startArrow=none;startFill=0;dashed=1;" parent="1" edge="1">
                    <mxGeometry relative="1" as="geometry">
                        <mxPoint x="527" y="740" as="sourcePoint"/>
                        <mxPoint x="625" y="740" as="targetPoint"/>
                    </mxGeometry>
                </mxCell>
                <mxCell id="yxxKlvif9OGhSchaogqb-123" value="msg" style="edgeLabel;html=1;align=center;verticalAlign=middle;resizable=0;points=[];" parent="yxxKlvif9OGhSchaogqb-122" vertex="1" connectable="0">
                    <mxGeometry x="-0.1916" relative="1" as="geometry">
                        <mxPoint x="15" y="-10" as="offset"/>
                    </mxGeometry>
                </mxCell>
                <mxCell id="yxxKlvif9OGhSchaogqb-124" style="edgeStyle=orthogonalEdgeStyle;rounded=0;orthogonalLoop=1;jettySize=auto;html=1;curved=0;exitX=1;exitY=0;exitDx=0;exitDy=5;exitPerimeter=0;dashed=1;startArrow=classic;startFill=1;endArrow=none;endFill=0;" parent="1" edge="1">
                    <mxGeometry relative="1" as="geometry">
                        <mxPoint x="306" y="650" as="sourcePoint"/>
                        <mxPoint x="404" y="650" as="targetPoint"/>
                    </mxGeometry>
                </mxCell>
                <mxCell id="yxxKlvif9OGhSchaogqb-125" value="ok" style="edgeLabel;html=1;align=center;verticalAlign=middle;resizable=0;points=[];" parent="yxxKlvif9OGhSchaogqb-124" vertex="1" connectable="0">
                    <mxGeometry x="-0.1916" relative="1" as="geometry">
                        <mxPoint x="15" y="-10" as="offset"/>
                    </mxGeometry>
                </mxCell>
                <mxCell id="yxxKlvif9OGhSchaogqb-126" style="edgeStyle=orthogonalEdgeStyle;rounded=0;orthogonalLoop=1;jettySize=auto;html=1;curved=0;exitX=1;exitY=0;exitDx=0;exitDy=5;exitPerimeter=0;dashed=1;startArrow=classic;startFill=1;endArrow=none;endFill=0;" parent="1" edge="1">
                    <mxGeometry relative="1" as="geometry">
                        <mxPoint x="196" y="660" as="sourcePoint"/>
                        <mxPoint x="294" y="660" as="targetPoint"/>
                    </mxGeometry>
                </mxCell>
                <mxCell id="yxxKlvif9OGhSchaogqb-127" value="resp 200" style="edgeLabel;html=1;align=center;verticalAlign=middle;resizable=0;points=[];" parent="yxxKlvif9OGhSchaogqb-126" vertex="1" connectable="0">
                    <mxGeometry x="-0.1916" relative="1" as="geometry">
                        <mxPoint x="15" y="-10" as="offset"/>
                    </mxGeometry>
                </mxCell>
                <mxCell id="yxxKlvif9OGhSchaogqb-128" style="edgeStyle=orthogonalEdgeStyle;rounded=0;orthogonalLoop=1;jettySize=auto;html=1;curved=0;exitX=1;exitY=0;exitDx=0;exitDy=5;exitPerimeter=0;dashed=1;startArrow=classic;startFill=1;endArrow=none;endFill=0;" parent="1" edge="1">
                    <mxGeometry relative="1" as="geometry">
                        <mxPoint x="86" y="680" as="sourcePoint"/>
                        <mxPoint x="184" y="680" as="targetPoint"/>
                    </mxGeometry>
                </mxCell>
                <mxCell id="yxxKlvif9OGhSchaogqb-129" value="resp" style="edgeLabel;html=1;align=center;verticalAlign=middle;resizable=0;points=[];" parent="yxxKlvif9OGhSchaogqb-128" vertex="1" connectable="0">
                    <mxGeometry x="-0.1916" relative="1" as="geometry">
                        <mxPoint x="15" y="-10" as="offset"/>
                    </mxGeometry>
                </mxCell>
                <mxCell id="yxxKlvif9OGhSchaogqb-133" value="Email Provider" style="shape=umlLifeline;perimeter=lifelinePerimeter;whiteSpace=wrap;html=1;container=1;dropTarget=0;collapsible=0;recursiveResize=0;outlineConnect=0;portConstraint=eastwest;newEdgeStyle={&quot;curved&quot;:0,&quot;rounded&quot;:0};" parent="1" vertex="1">
                    <mxGeometry x="690" y="450" width="100" height="760" as="geometry"/>
                </mxCell>
                <mxCell id="yxxKlvif9OGhSchaogqb-137" value="" style="html=1;points=[[0,0,0,0,5],[0,1,0,0,-5],[1,0,0,0,5],[1,1,0,0,-5]];perimeter=orthogonalPerimeter;outlineConnect=0;targetShapes=umlLifeline;portConstraint=eastwest;newEdgeStyle={&quot;curved&quot;:0,&quot;rounded&quot;:0};" parent="yxxKlvif9OGhSchaogqb-133" vertex="1">
                    <mxGeometry x="45" y="320" width="10" height="50" as="geometry"/>
                </mxCell>
                <mxCell id="yxxKlvif9OGhSchaogqb-135" style="edgeStyle=orthogonalEdgeStyle;rounded=0;orthogonalLoop=1;jettySize=auto;html=1;curved=0;exitX=1;exitY=0;exitDx=0;exitDy=5;exitPerimeter=0;" parent="1" edge="1">
                    <mxGeometry relative="1" as="geometry">
                        <mxPoint x="639.27" y="780" as="sourcePoint"/>
                        <mxPoint x="732" y="780" as="targetPoint"/>
                    </mxGeometry>
                </mxCell>
                <mxCell id="yxxKlvif9OGhSchaogqb-136" value="sendEmail(email, subject, text)" style="edgeLabel;html=1;align=center;verticalAlign=middle;resizable=0;points=[];" parent="yxxKlvif9OGhSchaogqb-135" vertex="1" connectable="0">
                    <mxGeometry x="-0.1916" relative="1" as="geometry">
                        <mxPoint x="15" y="-10" as="offset"/>
                    </mxGeometry>
                </mxCell>
                <mxCell id="3" value="resp" style="edgeStyle=none;html=1;curved=0;rounded=0;exitX=0;exitY=1;exitDx=0;exitDy=-5;exitPerimeter=0;dashed=1;endArrow=open;endFill=0;" edge="1" parent="1">
                    <mxGeometry x="-0.1" y="-14" relative="1" as="geometry">
                        <mxPoint x="185" y="1064" as="sourcePoint"/>
                        <mxPoint x="85" y="1064" as="targetPoint"/>
                        <mxPoint as="offset"/>
                    </mxGeometry>
                </mxCell>
                <mxCell id="yxxKlvif9OGhSchaogqb-147" value="" style="html=1;points=[[0,0,0,0,5],[0,1,0,0,-5],[1,0,0,0,5],[1,1,0,0,-5]];perimeter=orthogonalPerimeter;outlineConnect=0;targetShapes=umlLifeline;portConstraint=eastwest;newEdgeStyle={&quot;curved&quot;:0,&quot;rounded&quot;:0};" parent="1" vertex="1">
                    <mxGeometry x="185" y="910" width="10" height="160" as="geometry"/>
                </mxCell>
                <mxCell id="yxxKlvif9OGhSchaogqb-148" value="" style="html=1;points=[[0,0,0,0,5],[0,1,0,0,-5],[1,0,0,0,5],[1,1,0,0,-5]];perimeter=orthogonalPerimeter;outlineConnect=0;targetShapes=umlLifeline;portConstraint=eastwest;newEdgeStyle={&quot;curved&quot;:0,&quot;rounded&quot;:0};" parent="1" vertex="1">
                    <mxGeometry x="191" y="950" width="10" height="40" as="geometry"/>
                </mxCell>
                <mxCell id="yxxKlvif9OGhSchaogqb-149" value="checkAuth" style="html=1;align=left;spacingLeft=2;endArrow=block;rounded=0;edgeStyle=orthogonalEdgeStyle;curved=0;rounded=0;" parent="1" target="yxxKlvif9OGhSchaogqb-148" edge="1">
                    <mxGeometry relative="1" as="geometry">
                        <mxPoint x="196" y="930" as="sourcePoint"/>
                        <Array as="points">
                            <mxPoint x="226" y="960"/>
                        </Array>
                    </mxGeometry>
                </mxCell>
                <mxCell id="yxxKlvif9OGhSchaogqb-151" style="edgeStyle=orthogonalEdgeStyle;rounded=0;orthogonalLoop=1;jettySize=auto;html=1;curved=0;exitX=1;exitY=0;exitDx=0;exitDy=5;exitPerimeter=0;" parent="1" edge="1">
                    <mxGeometry relative="1" as="geometry">
                        <mxPoint x="197" y="1010" as="sourcePoint"/>
                        <mxPoint x="295" y="1010" as="targetPoint"/>
                    </mxGeometry>
                </mxCell>
                <mxCell id="yxxKlvif9OGhSchaogqb-152" value="req" style="edgeLabel;html=1;align=center;verticalAlign=middle;resizable=0;points=[];" parent="yxxKlvif9OGhSchaogqb-151" vertex="1" connectable="0">
                    <mxGeometry x="-0.1916" relative="1" as="geometry">
                        <mxPoint x="1" y="-10" as="offset"/>
                    </mxGeometry>
                </mxCell>
                <mxCell id="yxxKlvif9OGhSchaogqb-153" style="edgeStyle=orthogonalEdgeStyle;rounded=0;orthogonalLoop=1;jettySize=auto;html=1;curved=0;exitX=1;exitY=0;exitDx=0;exitDy=5;exitPerimeter=0;entryX=-0.295;entryY=0.223;entryDx=0;entryDy=0;entryPerimeter=0;" parent="1" target="yxxKlvif9OGhSchaogqb-155" edge="1">
                    <mxGeometry relative="1" as="geometry">
                        <mxPoint x="306" y="1036" as="sourcePoint"/>
                        <mxPoint x="404" y="1036" as="targetPoint"/>
                    </mxGeometry>
                </mxCell>
                <mxCell id="yxxKlvif9OGhSchaogqb-154" value="write(NotificationTopic, msg: inviteEdu)" style="edgeLabel;html=1;align=center;verticalAlign=middle;resizable=0;points=[];" parent="yxxKlvif9OGhSchaogqb-153" vertex="1" connectable="0">
                    <mxGeometry x="-0.1916" relative="1" as="geometry">
                        <mxPoint x="1" y="-10" as="offset"/>
                    </mxGeometry>
                </mxCell>
                <mxCell id="yxxKlvif9OGhSchaogqb-155" value="" style="html=1;points=[[0,0,0,0,5],[0,1,0,0,-5],[1,0,0,0,5],[1,1,0,0,-5]];perimeter=orthogonalPerimeter;outlineConnect=0;targetShapes=umlLifeline;portConstraint=eastwest;newEdgeStyle={&quot;curved&quot;:0,&quot;rounded&quot;:0};" parent="1" vertex="1">
                    <mxGeometry x="515" y="1020" width="10" height="70" as="geometry"/>
                </mxCell>
                <mxCell id="yxxKlvif9OGhSchaogqb-162" style="edgeStyle=orthogonalEdgeStyle;rounded=0;orthogonalLoop=1;jettySize=auto;html=1;curved=0;exitX=1;exitY=0;exitDx=0;exitDy=5;exitPerimeter=0;endArrow=classic;endFill=1;startArrow=none;startFill=0;dashed=1;" parent="1" edge="1">
                    <mxGeometry relative="1" as="geometry">
                        <mxPoint x="526.5" y="1080" as="sourcePoint"/>
                        <mxPoint x="624.5" y="1080" as="targetPoint"/>
                    </mxGeometry>
                </mxCell>
                <mxCell id="yxxKlvif9OGhSchaogqb-163" value="msg" style="edgeLabel;html=1;align=center;verticalAlign=middle;resizable=0;points=[];" parent="yxxKlvif9OGhSchaogqb-162" vertex="1" connectable="0">
                    <mxGeometry x="-0.1916" relative="1" as="geometry">
                        <mxPoint x="15" y="-10" as="offset"/>
                    </mxGeometry>
                </mxCell>
                <mxCell id="yxxKlvif9OGhSchaogqb-168" value="" style="html=1;points=[[0,0,0,0,5],[0,1,0,0,-5],[1,0,0,0,5],[1,1,0,0,-5]];perimeter=orthogonalPerimeter;outlineConnect=0;targetShapes=umlLifeline;portConstraint=eastwest;newEdgeStyle={&quot;curved&quot;:0,&quot;rounded&quot;:0};" parent="1" vertex="1">
                    <mxGeometry x="625" y="1030" width="10" height="150" as="geometry"/>
                </mxCell>
                <mxCell id="yxxKlvif9OGhSchaogqb-169" value="" style="html=1;points=[[0,0,0,0,5],[0,1,0,0,-5],[1,0,0,0,5],[1,1,0,0,-5]];perimeter=orthogonalPerimeter;outlineConnect=0;targetShapes=umlLifeline;portConstraint=eastwest;newEdgeStyle={&quot;curved&quot;:0,&quot;rounded&quot;:0};" parent="1" vertex="1">
                    <mxGeometry x="735" y="1110" width="10" height="50" as="geometry"/>
                </mxCell>
                <mxCell id="yxxKlvif9OGhSchaogqb-164" style="edgeStyle=orthogonalEdgeStyle;rounded=0;orthogonalLoop=1;jettySize=auto;html=1;curved=0;exitX=1;exitY=0;exitDx=0;exitDy=5;exitPerimeter=0;" parent="1" edge="1">
                    <mxGeometry relative="1" as="geometry">
                        <mxPoint x="638.77" y="1120" as="sourcePoint"/>
                        <mxPoint x="731.5" y="1120" as="targetPoint"/>
                    </mxGeometry>
                </mxCell>
                <mxCell id="yxxKlvif9OGhSchaogqb-165" value="sendEmail(email, subject, text)" style="edgeLabel;html=1;align=center;verticalAlign=middle;resizable=0;points=[];" parent="yxxKlvif9OGhSchaogqb-164" vertex="1" connectable="0">
                    <mxGeometry x="-0.1916" relative="1" as="geometry">
                        <mxPoint x="15" y="-10" as="offset"/>
                    </mxGeometry>
                </mxCell>
                <mxCell id="yxxKlvif9OGhSchaogqb-160" style="edgeStyle=orthogonalEdgeStyle;rounded=0;orthogonalLoop=1;jettySize=auto;html=1;curved=0;exitX=1;exitY=0;exitDx=0;exitDy=5;exitPerimeter=0;endArrow=none;endFill=0;startArrow=classic;startFill=1;" parent="1" edge="1">
                    <mxGeometry relative="1" as="geometry">
                        <mxPoint x="526.5" y="1050" as="sourcePoint"/>
                        <mxPoint x="624.5" y="1050" as="targetPoint"/>
                    </mxGeometry>
                </mxCell>
                <mxCell id="yxxKlvif9OGhSchaogqb-161" value="read(TournamentTopic)" style="edgeLabel;html=1;align=center;verticalAlign=middle;resizable=0;points=[];" parent="yxxKlvif9OGhSchaogqb-160" vertex="1" connectable="0">
                    <mxGeometry x="-0.1916" relative="1" as="geometry">
                        <mxPoint x="15" y="-10" as="offset"/>
                    </mxGeometry>
                </mxCell>
                <mxCell id="yxxKlvif9OGhSchaogqb-142" style="edgeStyle=orthogonalEdgeStyle;rounded=0;orthogonalLoop=1;jettySize=auto;html=1;curved=0;exitX=1;exitY=0;exitDx=0;exitDy=5;exitPerimeter=0;" parent="1" edge="1">
                    <mxGeometry relative="1" as="geometry">
                        <mxPoint x="85" y="920" as="sourcePoint"/>
                        <mxPoint x="183" y="920" as="targetPoint"/>
                    </mxGeometry>
                </mxCell>
                <mxCell id="yxxKlvif9OGhSchaogqb-143" value="post: /tournament/idT/addCollaborator" style="edgeLabel;html=1;align=center;verticalAlign=middle;resizable=0;points=[];" parent="yxxKlvif9OGhSchaogqb-142" vertex="1" connectable="0">
                    <mxGeometry x="-0.1916" relative="1" as="geometry">
                        <mxPoint x="1" y="-10" as="offset"/>
                    </mxGeometry>
                </mxCell>
                <mxCell id="yxxKlvif9OGhSchaogqb-180" value="client browser" style="shape=umlLifeline;perimeter=lifelinePerimeter;whiteSpace=wrap;html=1;container=1;dropTarget=0;collapsible=0;recursiveResize=0;outlineConnect=0;portConstraint=eastwest;newEdgeStyle={&quot;curved&quot;:0,&quot;rounded&quot;:0};" parent="1" vertex="1">
                    <mxGeometry x="30" y="1360" width="100" height="330" as="geometry"/>
                </mxCell>
                <mxCell id="yxxKlvif9OGhSchaogqb-190" value="" style="html=1;points=[[0,0,0,0,5],[0,1,0,0,-5],[1,0,0,0,5],[1,1,0,0,-5]];perimeter=orthogonalPerimeter;outlineConnect=0;targetShapes=umlLifeline;portConstraint=eastwest;newEdgeStyle={&quot;curved&quot;:0,&quot;rounded&quot;:0};" parent="yxxKlvif9OGhSchaogqb-180" vertex="1">
                    <mxGeometry x="45" y="80" width="10" height="220" as="geometry"/>
                </mxCell>
                <mxCell id="yxxKlvif9OGhSchaogqb-183" value="API Gateway" style="shape=umlLifeline;perimeter=lifelinePerimeter;whiteSpace=wrap;html=1;container=1;dropTarget=0;collapsible=0;recursiveResize=0;outlineConnect=0;portConstraint=eastwest;newEdgeStyle={&quot;curved&quot;:0,&quot;rounded&quot;:0};" parent="1" vertex="1">
                    <mxGeometry x="140" y="1360" width="100" height="330" as="geometry"/>
                </mxCell>
                <mxCell id="yxxKlvif9OGhSchaogqb-193" value="" style="html=1;points=[[0,0,0,0,5],[0,1,0,0,-5],[1,0,0,0,5],[1,1,0,0,-5]];perimeter=orthogonalPerimeter;outlineConnect=0;targetShapes=umlLifeline;portConstraint=eastwest;newEdgeStyle={&quot;curved&quot;:0,&quot;rounded&quot;:0};" parent="yxxKlvif9OGhSchaogqb-183" vertex="1">
                    <mxGeometry x="45" y="90" width="10" height="190" as="geometry"/>
                </mxCell>
                <mxCell id="yxxKlvif9OGhSchaogqb-187" value="&lt;div&gt;Tournament&lt;/div&gt;&lt;div&gt;Service&lt;br&gt;&lt;/div&gt;" style="shape=umlLifeline;perimeter=lifelinePerimeter;whiteSpace=wrap;html=1;container=1;dropTarget=0;collapsible=0;recursiveResize=0;outlineConnect=0;portConstraint=eastwest;newEdgeStyle={&quot;curved&quot;:0,&quot;rounded&quot;:0};" parent="1" vertex="1">
                    <mxGeometry x="250" y="1360" width="100" height="330" as="geometry"/>
                </mxCell>
                <mxCell id="yxxKlvif9OGhSchaogqb-200" value="" style="html=1;points=[[0,0,0,0,5],[0,1,0,0,-5],[1,0,0,0,5],[1,1,0,0,-5]];perimeter=orthogonalPerimeter;outlineConnect=0;targetShapes=umlLifeline;portConstraint=eastwest;newEdgeStyle={&quot;curved&quot;:0,&quot;rounded&quot;:0};" parent="yxxKlvif9OGhSchaogqb-187" vertex="1">
                    <mxGeometry x="45" y="168" width="10" height="80" as="geometry"/>
                </mxCell>
                <mxCell id="yxxKlvif9OGhSchaogqb-191" style="edgeStyle=orthogonalEdgeStyle;rounded=0;orthogonalLoop=1;jettySize=auto;html=1;curved=0;exitX=1;exitY=0;exitDx=0;exitDy=5;exitPerimeter=0;" parent="1" edge="1">
                    <mxGeometry relative="1" as="geometry">
                        <mxPoint x="87" y="1460" as="sourcePoint"/>
                        <mxPoint x="185" y="1460" as="targetPoint"/>
                    </mxGeometry>
                </mxCell>
                <mxCell id="yxxKlvif9OGhSchaogqb-192" value="post: /tournament/idT/subscribe" style="edgeLabel;html=1;align=center;verticalAlign=middle;resizable=0;points=[];" parent="yxxKlvif9OGhSchaogqb-191" vertex="1" connectable="0">
                    <mxGeometry x="-0.1916" relative="1" as="geometry">
                        <mxPoint x="1" y="-10" as="offset"/>
                    </mxGeometry>
                </mxCell>
                <mxCell id="yxxKlvif9OGhSchaogqb-194" style="edgeStyle=orthogonalEdgeStyle;rounded=0;orthogonalLoop=1;jettySize=auto;html=1;curved=0;exitX=1;exitY=0;exitDx=0;exitDy=5;exitPerimeter=0;" parent="1" edge="1">
                    <mxGeometry relative="1" as="geometry">
                        <mxPoint x="196" y="1541" as="sourcePoint"/>
                        <mxPoint x="294" y="1541" as="targetPoint"/>
                    </mxGeometry>
                </mxCell>
                <mxCell id="yxxKlvif9OGhSchaogqb-195" value="req" style="edgeLabel;html=1;align=center;verticalAlign=middle;resizable=0;points=[];" parent="yxxKlvif9OGhSchaogqb-194" vertex="1" connectable="0">
                    <mxGeometry x="-0.1916" relative="1" as="geometry">
                        <mxPoint x="1" y="-10" as="offset"/>
                    </mxGeometry>
                </mxCell>
                <mxCell id="yxxKlvif9OGhSchaogqb-196" value="" style="html=1;points=[[0,0,0,0,5],[0,1,0,0,-5],[1,0,0,0,5],[1,1,0,0,-5]];perimeter=orthogonalPerimeter;outlineConnect=0;targetShapes=umlLifeline;portConstraint=eastwest;newEdgeStyle={&quot;curved&quot;:0,&quot;rounded&quot;:0};" parent="1" vertex="1">
                    <mxGeometry x="190" y="1488" width="10" height="40" as="geometry"/>
                </mxCell>
                <mxCell id="yxxKlvif9OGhSchaogqb-197" value="checkAuth" style="html=1;align=left;spacingLeft=2;endArrow=block;rounded=0;edgeStyle=orthogonalEdgeStyle;curved=0;rounded=0;" parent="1" target="yxxKlvif9OGhSchaogqb-196" edge="1">
                    <mxGeometry relative="1" as="geometry">
                        <mxPoint x="195" y="1468" as="sourcePoint"/>
                        <Array as="points">
                            <mxPoint x="225" y="1498"/>
                        </Array>
                    </mxGeometry>
                </mxCell>
                <mxCell id="yxxKlvif9OGhSchaogqb-201" style="edgeStyle=orthogonalEdgeStyle;rounded=0;orthogonalLoop=1;jettySize=auto;html=1;curved=0;exitX=1;exitY=0;exitDx=0;exitDy=5;exitPerimeter=0;dashed=1;startArrow=classic;startFill=1;endArrow=none;endFill=0;" parent="1" edge="1">
                    <mxGeometry relative="1" as="geometry">
                        <mxPoint x="196" y="1600" as="sourcePoint"/>
                        <mxPoint x="294" y="1600" as="targetPoint"/>
                    </mxGeometry>
                </mxCell>
                <mxCell id="yxxKlvif9OGhSchaogqb-202" value="resp 200" style="edgeLabel;html=1;align=center;verticalAlign=middle;resizable=0;points=[];" parent="yxxKlvif9OGhSchaogqb-201" vertex="1" connectable="0">
                    <mxGeometry x="-0.1916" relative="1" as="geometry">
                        <mxPoint x="15" y="-10" as="offset"/>
                    </mxGeometry>
                </mxCell>
                <mxCell id="yxxKlvif9OGhSchaogqb-203" style="edgeStyle=orthogonalEdgeStyle;rounded=0;orthogonalLoop=1;jettySize=auto;html=1;curved=0;exitX=1;exitY=0;exitDx=0;exitDy=5;exitPerimeter=0;dashed=1;startArrow=classic;startFill=1;endArrow=none;endFill=0;" parent="1" edge="1">
                    <mxGeometry relative="1" as="geometry">
                        <mxPoint x="87" y="1630" as="sourcePoint"/>
                        <mxPoint x="185" y="1630" as="targetPoint"/>
                    </mxGeometry>
                </mxCell>
                <mxCell id="yxxKlvif9OGhSchaogqb-204" value="Response" style="edgeLabel;html=1;align=center;verticalAlign=middle;resizable=0;points=[];" parent="yxxKlvif9OGhSchaogqb-203" vertex="1" connectable="0">
                    <mxGeometry x="-0.1916" relative="1" as="geometry">
                        <mxPoint x="15" y="-10" as="offset"/>
                    </mxGeometry>
                </mxCell>
                <mxCell id="yxxKlvif9OGhSchaogqb-222" value="GitHub" style="shape=umlLifeline;perimeter=lifelinePerimeter;whiteSpace=wrap;html=1;container=1;dropTarget=0;collapsible=0;recursiveResize=0;outlineConnect=0;portConstraint=eastwest;newEdgeStyle={&quot;curved&quot;:0,&quot;rounded&quot;:0};" parent="1" vertex="1">
                    <mxGeometry x="30" y="1792" width="100" height="568" as="geometry"/>
                </mxCell>
                <mxCell id="yxxKlvif9OGhSchaogqb-223" value="" style="html=1;points=[[0,0,0,0,5],[0,1,0,0,-5],[1,0,0,0,5],[1,1,0,0,-5]];perimeter=orthogonalPerimeter;outlineConnect=0;targetShapes=umlLifeline;portConstraint=eastwest;newEdgeStyle={&quot;curved&quot;:0,&quot;rounded&quot;:0};" parent="yxxKlvif9OGhSchaogqb-222" vertex="1">
                    <mxGeometry x="45" y="80" width="10" height="220" as="geometry"/>
                </mxCell>
                <mxCell id="yxxKlvif9OGhSchaogqb-224" value="GitHub Handler" style="shape=umlLifeline;perimeter=lifelinePerimeter;whiteSpace=wrap;html=1;container=1;dropTarget=0;collapsible=0;recursiveResize=0;outlineConnect=0;portConstraint=eastwest;newEdgeStyle={&quot;curved&quot;:0,&quot;rounded&quot;:0};" parent="1" vertex="1">
                    <mxGeometry x="140" y="1792" width="100" height="568" as="geometry"/>
                </mxCell>
                <mxCell id="yxxKlvif9OGhSchaogqb-225" value="" style="html=1;points=[[0,0,0,0,5],[0,1,0,0,-5],[1,0,0,0,5],[1,1,0,0,-5]];perimeter=orthogonalPerimeter;outlineConnect=0;targetShapes=umlLifeline;portConstraint=eastwest;newEdgeStyle={&quot;curved&quot;:0,&quot;rounded&quot;:0};" parent="yxxKlvif9OGhSchaogqb-224" vertex="1">
                    <mxGeometry x="45" y="90" width="10" height="190" as="geometry"/>
                </mxCell>
                <mxCell id="yxxKlvif9OGhSchaogqb-226" value="DBMS Sources" style="shape=umlLifeline;perimeter=lifelinePerimeter;whiteSpace=wrap;html=1;container=1;dropTarget=0;collapsible=0;recursiveResize=0;outlineConnect=0;portConstraint=eastwest;newEdgeStyle={&quot;curved&quot;:0,&quot;rounded&quot;:0};" parent="1" vertex="1">
                    <mxGeometry x="250" y="1792" width="100" height="568" as="geometry"/>
                </mxCell>
                <mxCell id="yxxKlvif9OGhSchaogqb-227" value="" style="html=1;points=[[0,0,0,0,5],[0,1,0,0,-5],[1,0,0,0,5],[1,1,0,0,-5]];perimeter=orthogonalPerimeter;outlineConnect=0;targetShapes=umlLifeline;portConstraint=eastwest;newEdgeStyle={&quot;curved&quot;:0,&quot;rounded&quot;:0};" parent="yxxKlvif9OGhSchaogqb-226" vertex="1">
                    <mxGeometry x="45" y="180" width="10" height="58" as="geometry"/>
                </mxCell>
                <mxCell id="yxxKlvif9OGhSchaogqb-228" value="MessageBroker" style="shape=umlLifeline;perimeter=lifelinePerimeter;whiteSpace=wrap;html=1;container=1;dropTarget=0;collapsible=0;recursiveResize=0;outlineConnect=0;portConstraint=eastwest;newEdgeStyle={&quot;curved&quot;:0,&quot;rounded&quot;:0};" parent="1" vertex="1">
                    <mxGeometry x="360" y="1792" width="100" height="568" as="geometry"/>
                </mxCell>
                <mxCell id="yxxKlvif9OGhSchaogqb-229" value="" style="html=1;points=[[0,0,0,0,5],[0,1,0,0,-5],[1,0,0,0,5],[1,1,0,0,-5]];perimeter=orthogonalPerimeter;outlineConnect=0;targetShapes=umlLifeline;portConstraint=eastwest;newEdgeStyle={&quot;curved&quot;:0,&quot;rounded&quot;:0};" parent="yxxKlvif9OGhSchaogqb-228" vertex="1">
                    <mxGeometry x="45" y="260" width="10" height="240" as="geometry"/>
                </mxCell>
                <mxCell id="yxxKlvif9OGhSchaogqb-230" value="SoftwareEval Service" style="shape=umlLifeline;perimeter=lifelinePerimeter;whiteSpace=wrap;html=1;container=1;dropTarget=0;collapsible=0;recursiveResize=0;outlineConnect=0;portConstraint=eastwest;newEdgeStyle={&quot;curved&quot;:0,&quot;rounded&quot;:0};" parent="1" vertex="1">
                    <mxGeometry x="470" y="1792" width="100" height="568" as="geometry"/>
                </mxCell>
                <mxCell id="yxxKlvif9OGhSchaogqb-235" style="edgeStyle=orthogonalEdgeStyle;rounded=0;orthogonalLoop=1;jettySize=auto;html=1;curved=0;exitX=1;exitY=0;exitDx=0;exitDy=5;exitPerimeter=0;" parent="1" edge="1">
                    <mxGeometry relative="1" as="geometry">
                        <mxPoint x="87" y="1910" as="sourcePoint"/>
                        <mxPoint x="185" y="1910" as="targetPoint"/>
                    </mxGeometry>
                </mxCell>
                <mxCell id="yxxKlvif9OGhSchaogqb-236" value="notify()" style="edgeLabel;html=1;align=center;verticalAlign=middle;resizable=0;points=[];" parent="yxxKlvif9OGhSchaogqb-235" vertex="1" connectable="0">
                    <mxGeometry x="-0.1916" relative="1" as="geometry">
                        <mxPoint x="1" y="-10" as="offset"/>
                    </mxGeometry>
                </mxCell>
                <mxCell id="yxxKlvif9OGhSchaogqb-239" style="edgeStyle=orthogonalEdgeStyle;rounded=0;orthogonalLoop=1;jettySize=auto;html=1;curved=0;exitX=1;exitY=0;exitDx=0;exitDy=5;exitPerimeter=0;dashed=1;startArrow=classic;startFill=1;endArrow=none;endFill=0;" parent="1" edge="1">
                    <mxGeometry relative="1" as="geometry">
                        <mxPoint x="87" y="1934.14" as="sourcePoint"/>
                        <mxPoint x="185" y="1934.14" as="targetPoint"/>
                    </mxGeometry>
                </mxCell>
                <mxCell id="yxxKlvif9OGhSchaogqb-240" value="pull()" style="edgeLabel;html=1;align=center;verticalAlign=middle;resizable=0;points=[];" parent="yxxKlvif9OGhSchaogqb-239" vertex="1" connectable="0">
                    <mxGeometry x="-0.1916" relative="1" as="geometry">
                        <mxPoint x="1" y="-10" as="offset"/>
                    </mxGeometry>
                </mxCell>
                <mxCell id="yxxKlvif9OGhSchaogqb-241" style="edgeStyle=orthogonalEdgeStyle;rounded=0;orthogonalLoop=1;jettySize=auto;html=1;curved=0;exitX=1;exitY=0;exitDx=0;exitDy=5;exitPerimeter=0;endArrow=open;endFill=0;dashed=1;" parent="1" edge="1">
                    <mxGeometry relative="1" as="geometry">
                        <mxPoint x="87" y="1960" as="sourcePoint"/>
                        <mxPoint x="185" y="1960" as="targetPoint"/>
                    </mxGeometry>
                </mxCell>
                <mxCell id="yxxKlvif9OGhSchaogqb-242" value="send Source Code" style="edgeLabel;html=1;align=center;verticalAlign=middle;resizable=0;points=[];" parent="yxxKlvif9OGhSchaogqb-241" vertex="1" connectable="0">
                    <mxGeometry x="-0.1916" relative="1" as="geometry">
                        <mxPoint x="1" y="-10" as="offset"/>
                    </mxGeometry>
                </mxCell>
                <mxCell id="yxxKlvif9OGhSchaogqb-244" style="edgeStyle=orthogonalEdgeStyle;rounded=0;orthogonalLoop=1;jettySize=auto;html=1;curved=0;exitX=1;exitY=0;exitDx=0;exitDy=5;exitPerimeter=0;" parent="1" edge="1">
                    <mxGeometry relative="1" as="geometry">
                        <mxPoint x="195" y="1980" as="sourcePoint"/>
                        <mxPoint x="293" y="1980" as="targetPoint"/>
                    </mxGeometry>
                </mxCell>
                <mxCell id="yxxKlvif9OGhSchaogqb-245" value="saveGroupSouce(gID, bID, SourceCode)" style="edgeLabel;html=1;align=center;verticalAlign=middle;resizable=0;points=[];" parent="yxxKlvif9OGhSchaogqb-244" vertex="1" connectable="0">
                    <mxGeometry x="-0.1916" relative="1" as="geometry">
                        <mxPoint x="1" y="-10" as="offset"/>
                    </mxGeometry>
                </mxCell>
                <mxCell id="yxxKlvif9OGhSchaogqb-246" style="edgeStyle=orthogonalEdgeStyle;rounded=0;orthogonalLoop=1;jettySize=auto;html=1;curved=0;exitX=1;exitY=0;exitDx=0;exitDy=5;exitPerimeter=0;dashed=1;startArrow=classic;startFill=1;endArrow=none;endFill=0;" parent="1" edge="1">
                    <mxGeometry relative="1" as="geometry">
                        <mxPoint x="196" y="2020" as="sourcePoint"/>
                        <mxPoint x="294" y="2020" as="targetPoint"/>
                    </mxGeometry>
                </mxCell>
                <mxCell id="yxxKlvif9OGhSchaogqb-247" value="Response" style="edgeLabel;html=1;align=center;verticalAlign=middle;resizable=0;points=[];" parent="yxxKlvif9OGhSchaogqb-246" vertex="1" connectable="0">
                    <mxGeometry x="-0.1916" relative="1" as="geometry">
                        <mxPoint x="1" y="-10" as="offset"/>
                    </mxGeometry>
                </mxCell>
                <mxCell id="yxxKlvif9OGhSchaogqb-231" value="" style="html=1;points=[[0,0,0,0,5],[0,1,0,0,-5],[1,0,0,0,5],[1,1,0,0,-5]];perimeter=orthogonalPerimeter;outlineConnect=0;targetShapes=umlLifeline;portConstraint=eastwest;newEdgeStyle={&quot;curved&quot;:0,&quot;rounded&quot;:0};" parent="1" vertex="1">
                    <mxGeometry x="515" y="2110" width="10" height="140" as="geometry"/>
                </mxCell>
                <mxCell id="yxxKlvif9OGhSchaogqb-250" style="edgeStyle=orthogonalEdgeStyle;rounded=0;orthogonalLoop=1;jettySize=auto;html=1;curved=0;exitX=1;exitY=0;exitDx=0;exitDy=5;exitPerimeter=0;" parent="1" edge="1">
                    <mxGeometry relative="1" as="geometry">
                        <mxPoint x="197" y="2062" as="sourcePoint"/>
                        <mxPoint x="402" y="2062" as="targetPoint"/>
                    </mxGeometry>
                </mxCell>
                <mxCell id="yxxKlvif9OGhSchaogqb-251" value="write(SourceTopic, msg: newSrcs)" style="edgeLabel;html=1;align=center;verticalAlign=middle;resizable=0;points=[];" parent="yxxKlvif9OGhSchaogqb-250" vertex="1" connectable="0">
                    <mxGeometry x="-0.1916" relative="1" as="geometry">
                        <mxPoint x="18" y="-10" as="offset"/>
                    </mxGeometry>
                </mxCell>
                <mxCell id="yxxKlvif9OGhSchaogqb-252" style="edgeStyle=orthogonalEdgeStyle;rounded=0;orthogonalLoop=1;jettySize=auto;html=1;curved=0;exitX=1;exitY=0;exitDx=0;exitDy=5;exitPerimeter=0;startArrow=classic;startFill=1;endArrow=none;endFill=0;" parent="1" edge="1">
                    <mxGeometry relative="1" as="geometry">
                        <mxPoint x="416" y="2122" as="sourcePoint"/>
                        <mxPoint x="514" y="2122" as="targetPoint"/>
                    </mxGeometry>
                </mxCell>
                <mxCell id="yxxKlvif9OGhSchaogqb-253" value="read(SourceTopic)" style="edgeLabel;html=1;align=center;verticalAlign=middle;resizable=0;points=[];" parent="yxxKlvif9OGhSchaogqb-252" vertex="1" connectable="0">
                    <mxGeometry x="-0.1916" relative="1" as="geometry">
                        <mxPoint x="12" y="-10" as="offset"/>
                    </mxGeometry>
                </mxCell>
                <mxCell id="yxxKlvif9OGhSchaogqb-254" style="edgeStyle=orthogonalEdgeStyle;rounded=0;orthogonalLoop=1;jettySize=auto;html=1;curved=0;exitX=1;exitY=0;exitDx=0;exitDy=5;exitPerimeter=0;dashed=1;startArrow=none;startFill=0;endArrow=classic;endFill=1;" parent="1" edge="1">
                    <mxGeometry relative="1" as="geometry">
                        <mxPoint x="414" y="2160" as="sourcePoint"/>
                        <mxPoint x="512" y="2160" as="targetPoint"/>
                    </mxGeometry>
                </mxCell>
                <mxCell id="yxxKlvif9OGhSchaogqb-255" value="msg" style="edgeLabel;html=1;align=center;verticalAlign=middle;resizable=0;points=[];" parent="yxxKlvif9OGhSchaogqb-254" vertex="1" connectable="0">
                    <mxGeometry x="-0.1916" relative="1" as="geometry">
                        <mxPoint x="12" y="-10" as="offset"/>
                    </mxGeometry>
                </mxCell>
                <mxCell id="yxxKlvif9OGhSchaogqb-256" value="&lt;div&gt;Leaderboard&lt;/div&gt;&lt;div&gt;Service&lt;br&gt;&lt;/div&gt;" style="shape=umlLifeline;perimeter=lifelinePerimeter;whiteSpace=wrap;html=1;container=1;dropTarget=0;collapsible=0;recursiveResize=0;outlineConnect=0;portConstraint=eastwest;newEdgeStyle={&quot;curved&quot;:0,&quot;rounded&quot;:0};" parent="1" vertex="1">
                    <mxGeometry x="580" y="1792" width="100" height="570" as="geometry"/>
                </mxCell>
                <mxCell id="yxxKlvif9OGhSchaogqb-261" value="" style="html=1;points=[[0,0,0,0,5],[0,1,0,0,-5],[1,0,0,0,5],[1,1,0,0,-5]];perimeter=orthogonalPerimeter;outlineConnect=0;targetShapes=umlLifeline;portConstraint=eastwest;newEdgeStyle={&quot;curved&quot;:0,&quot;rounded&quot;:0};" parent="yxxKlvif9OGhSchaogqb-256" vertex="1">
                    <mxGeometry x="45" y="480" width="10" height="60" as="geometry"/>
                </mxCell>
                <mxCell id="yxxKlvif9OGhSchaogqb-257" value="" style="html=1;points=[[0,0,0,0,5],[0,1,0,0,-5],[1,0,0,0,5],[1,1,0,0,-5]];perimeter=orthogonalPerimeter;outlineConnect=0;targetShapes=umlLifeline;portConstraint=eastwest;newEdgeStyle={&quot;curved&quot;:0,&quot;rounded&quot;:0};" parent="1" vertex="1">
                    <mxGeometry x="520" y="2190" width="10" height="40" as="geometry"/>
                </mxCell>
                <mxCell id="yxxKlvif9OGhSchaogqb-258" value="compile()&amp;amp;analyze()" style="html=1;align=left;spacingLeft=2;endArrow=block;rounded=0;edgeStyle=orthogonalEdgeStyle;curved=0;rounded=0;" parent="1" target="yxxKlvif9OGhSchaogqb-257" edge="1">
                    <mxGeometry relative="1" as="geometry">
                        <mxPoint x="525" y="2170" as="sourcePoint"/>
                        <Array as="points">
                            <mxPoint x="555" y="2200"/>
                        </Array>
                    </mxGeometry>
                </mxCell>
                <mxCell id="yxxKlvif9OGhSchaogqb-259" style="edgeStyle=orthogonalEdgeStyle;rounded=0;orthogonalLoop=1;jettySize=auto;html=1;curved=0;exitX=1;exitY=0;exitDx=0;exitDy=5;exitPerimeter=0;startArrow=classic;startFill=1;endArrow=none;endFill=0;" parent="1" edge="1">
                    <mxGeometry relative="1" as="geometry">
                        <mxPoint x="414" y="2240" as="sourcePoint"/>
                        <mxPoint x="512" y="2240" as="targetPoint"/>
                    </mxGeometry>
                </mxCell>
                <mxCell id="yxxKlvif9OGhSchaogqb-260" value="write(ScoringTopic, msg: newScoreforGroup)" style="edgeLabel;html=1;align=center;verticalAlign=middle;resizable=0;points=[];" parent="yxxKlvif9OGhSchaogqb-259" vertex="1" connectable="0">
                    <mxGeometry x="-0.1916" relative="1" as="geometry">
                        <mxPoint x="12" y="-10" as="offset"/>
                    </mxGeometry>
                </mxCell>
                <mxCell id="yxxKlvif9OGhSchaogqb-262" style="edgeStyle=orthogonalEdgeStyle;rounded=0;orthogonalLoop=1;jettySize=auto;html=1;curved=0;exitX=1;exitY=0;exitDx=0;exitDy=5;exitPerimeter=0;endArrow=none;endFill=0;startArrow=classic;startFill=1;" parent="1" edge="1">
                    <mxGeometry relative="1" as="geometry">
                        <mxPoint x="417.5" y="2280" as="sourcePoint"/>
                        <mxPoint x="622.5" y="2280" as="targetPoint"/>
                    </mxGeometry>
                </mxCell>
                <mxCell id="yxxKlvif9OGhSchaogqb-263" value="read(ScoringTopic)" style="edgeLabel;html=1;align=center;verticalAlign=middle;resizable=0;points=[];" parent="yxxKlvif9OGhSchaogqb-262" vertex="1" connectable="0">
                    <mxGeometry x="-0.1916" relative="1" as="geometry">
                        <mxPoint x="18" y="-10" as="offset"/>
                    </mxGeometry>
                </mxCell>
                <mxCell id="pGpMaRgbsiMrkL-crF_X-1" value="DBMS Application" style="shape=umlLifeline;perimeter=lifelinePerimeter;whiteSpace=wrap;html=1;container=1;dropTarget=0;collapsible=0;recursiveResize=0;outlineConnect=0;portConstraint=eastwest;newEdgeStyle={&quot;curved&quot;:0,&quot;rounded&quot;:0};" parent="1" vertex="1">
                    <mxGeometry x="690" y="1792" width="100" height="570" as="geometry"/>
                </mxCell>
                <mxCell id="pGpMaRgbsiMrkL-crF_X-2" value="" style="html=1;points=[[0,0,0,0,5],[0,1,0,0,-5],[1,0,0,0,5],[1,1,0,0,-5]];perimeter=orthogonalPerimeter;outlineConnect=0;targetShapes=umlLifeline;portConstraint=eastwest;newEdgeStyle={&quot;curved&quot;:0,&quot;rounded&quot;:0};" parent="pGpMaRgbsiMrkL-crF_X-1" vertex="1">
                    <mxGeometry x="45" y="480" width="10" height="60" as="geometry"/>
                </mxCell>
                <mxCell id="pGpMaRgbsiMrkL-crF_X-3" style="edgeStyle=orthogonalEdgeStyle;rounded=0;orthogonalLoop=1;jettySize=auto;html=1;curved=0;exitX=1;exitY=0;exitDx=0;exitDy=5;exitPerimeter=0;" parent="1" edge="1">
                    <mxGeometry relative="1" as="geometry">
                        <mxPoint x="635" y="2290" as="sourcePoint"/>
                        <mxPoint x="733" y="2290" as="targetPoint"/>
                    </mxGeometry>
                </mxCell>
                <mxCell id="pGpMaRgbsiMrkL-crF_X-4" value="setBattleScore(gID, score)" style="edgeLabel;html=1;align=center;verticalAlign=middle;resizable=0;points=[];" parent="pGpMaRgbsiMrkL-crF_X-3" vertex="1" connectable="0">
                    <mxGeometry x="-0.1916" relative="1" as="geometry">
                        <mxPoint x="1" y="-10" as="offset"/>
                    </mxGeometry>
                </mxCell>
                <mxCell id="pGpMaRgbsiMrkL-crF_X-5" style="edgeStyle=orthogonalEdgeStyle;rounded=0;orthogonalLoop=1;jettySize=auto;html=1;curved=0;exitX=1;exitY=0;exitDx=0;exitDy=5;exitPerimeter=0;dashed=1;startArrow=classic;startFill=1;endArrow=none;endFill=0;" parent="1" edge="1">
                    <mxGeometry relative="1" as="geometry">
                        <mxPoint x="635" y="2320" as="sourcePoint"/>
                        <mxPoint x="733" y="2320" as="targetPoint"/>
                    </mxGeometry>
                </mxCell>
                <mxCell id="pGpMaRgbsiMrkL-crF_X-6" value="ok" style="edgeLabel;html=1;align=center;verticalAlign=middle;resizable=0;points=[];" parent="pGpMaRgbsiMrkL-crF_X-5" vertex="1" connectable="0">
                    <mxGeometry x="-0.1916" relative="1" as="geometry">
                        <mxPoint x="1" y="-10" as="offset"/>
                    </mxGeometry>
                </mxCell>
                <mxCell id="pGpMaRgbsiMrkL-crF_X-9" value="client browser" style="shape=umlLifeline;perimeter=lifelinePerimeter;whiteSpace=wrap;html=1;container=1;dropTarget=0;collapsible=0;recursiveResize=0;outlineConnect=0;portConstraint=eastwest;newEdgeStyle={&quot;curved&quot;:0,&quot;rounded&quot;:0};" parent="1" vertex="1">
                    <mxGeometry x="30" y="2450" width="100" height="300" as="geometry"/>
                </mxCell>
                <mxCell id="pGpMaRgbsiMrkL-crF_X-10" value="" style="html=1;points=[[0,0,0,0,5],[0,1,0,0,-5],[1,0,0,0,5],[1,1,0,0,-5]];perimeter=orthogonalPerimeter;outlineConnect=0;targetShapes=umlLifeline;portConstraint=eastwest;newEdgeStyle={&quot;curved&quot;:0,&quot;rounded&quot;:0};" parent="pGpMaRgbsiMrkL-crF_X-9" vertex="1">
                    <mxGeometry x="45" y="70" width="10" height="200" as="geometry"/>
                </mxCell>
                <mxCell id="pGpMaRgbsiMrkL-crF_X-11" value="API gateway" style="shape=umlLifeline;perimeter=lifelinePerimeter;whiteSpace=wrap;html=1;container=1;dropTarget=0;collapsible=0;recursiveResize=0;outlineConnect=0;portConstraint=eastwest;newEdgeStyle={&quot;curved&quot;:0,&quot;rounded&quot;:0};" parent="1" vertex="1">
                    <mxGeometry x="140" y="2450" width="100" height="300" as="geometry"/>
                </mxCell>
                <mxCell id="pGpMaRgbsiMrkL-crF_X-12" value="" style="html=1;points=[[0,0,0,0,5],[0,1,0,0,-5],[1,0,0,0,5],[1,1,0,0,-5]];perimeter=orthogonalPerimeter;outlineConnect=0;targetShapes=umlLifeline;portConstraint=eastwest;newEdgeStyle={&quot;curved&quot;:0,&quot;rounded&quot;:0};" parent="pGpMaRgbsiMrkL-crF_X-11" vertex="1">
                    <mxGeometry x="45" y="80" width="10" height="170" as="geometry"/>
                </mxCell>
                <mxCell id="pGpMaRgbsiMrkL-crF_X-13" value="&lt;div&gt;Leaderboard&lt;/div&gt;&lt;div&gt;Service&lt;br&gt;&lt;/div&gt;" style="shape=umlLifeline;perimeter=lifelinePerimeter;whiteSpace=wrap;html=1;container=1;dropTarget=0;collapsible=0;recursiveResize=0;outlineConnect=0;portConstraint=eastwest;newEdgeStyle={&quot;curved&quot;:0,&quot;rounded&quot;:0};" parent="1" vertex="1">
                    <mxGeometry x="250" y="2450" width="100" height="300" as="geometry"/>
                </mxCell>
                <mxCell id="pGpMaRgbsiMrkL-crF_X-14" value="" style="html=1;points=[[0,0,0,0,5],[0,1,0,0,-5],[1,0,0,0,5],[1,1,0,0,-5]];perimeter=orthogonalPerimeter;outlineConnect=0;targetShapes=umlLifeline;portConstraint=eastwest;newEdgeStyle={&quot;curved&quot;:0,&quot;rounded&quot;:0};" parent="pGpMaRgbsiMrkL-crF_X-13" vertex="1">
                    <mxGeometry x="45" y="140" width="10" height="90" as="geometry"/>
                </mxCell>
                <mxCell id="pGpMaRgbsiMrkL-crF_X-15" value="DBMS Application" style="shape=umlLifeline;perimeter=lifelinePerimeter;whiteSpace=wrap;html=1;container=1;dropTarget=0;collapsible=0;recursiveResize=0;outlineConnect=0;portConstraint=eastwest;newEdgeStyle={&quot;curved&quot;:0,&quot;rounded&quot;:0};" parent="1" vertex="1">
                    <mxGeometry x="360" y="2450" width="100" height="300" as="geometry"/>
                </mxCell>
                <mxCell id="pGpMaRgbsiMrkL-crF_X-16" value="" style="html=1;points=[[0,0,0,0,5],[0,1,0,0,-5],[1,0,0,0,5],[1,1,0,0,-5]];perimeter=orthogonalPerimeter;outlineConnect=0;targetShapes=umlLifeline;portConstraint=eastwest;newEdgeStyle={&quot;curved&quot;:0,&quot;rounded&quot;:0};" parent="pGpMaRgbsiMrkL-crF_X-15" vertex="1">
                    <mxGeometry x="45" y="160" width="10" height="50" as="geometry"/>
                </mxCell>
                <mxCell id="pGpMaRgbsiMrkL-crF_X-17" value="resp" style="html=1;verticalAlign=bottom;endArrow=open;dashed=1;endSize=8;curved=0;rounded=0;exitX=0;exitY=1;exitDx=0;exitDy=-5;exitPerimeter=0;" parent="1" source="pGpMaRgbsiMrkL-crF_X-12" target="pGpMaRgbsiMrkL-crF_X-10" edge="1">
                    <mxGeometry relative="1" as="geometry">
                        <mxPoint x="120" y="2595" as="targetPoint"/>
                        <mxPoint as="offset"/>
                    </mxGeometry>
                </mxCell>
                <mxCell id="pGpMaRgbsiMrkL-crF_X-18" value="get:tourn/idT/lbtl" style="html=1;verticalAlign=bottom;endArrow=block;curved=0;rounded=0;entryX=0;entryY=0;entryDx=0;entryDy=5;" parent="1" source="pGpMaRgbsiMrkL-crF_X-10" target="pGpMaRgbsiMrkL-crF_X-12" edge="1">
                    <mxGeometry relative="1" as="geometry">
                        <mxPoint x="120" y="2525" as="sourcePoint"/>
                        <mxPoint as="offset"/>
                    </mxGeometry>
                </mxCell>
                <mxCell id="pGpMaRgbsiMrkL-crF_X-19" value="uri" style="html=1;verticalAlign=bottom;endArrow=block;curved=0;rounded=0;" parent="1" edge="1">
                    <mxGeometry relative="1" as="geometry">
                        <mxPoint x="200" y="2602" as="sourcePoint"/>
                        <Array as="points">
                            <mxPoint x="241" y="2602"/>
                        </Array>
                        <mxPoint x="296" y="2602" as="targetPoint"/>
                    </mxGeometry>
                </mxCell>
                <mxCell id="pGpMaRgbsiMrkL-crF_X-20" value="&lt;div&gt;resp 200 + &lt;br&gt;&lt;/div&gt;&lt;div&gt;leaderboard&lt;br&gt;&lt;/div&gt;" style="html=1;verticalAlign=bottom;endArrow=open;dashed=1;endSize=8;curved=0;rounded=0;exitX=0;exitY=1;exitDx=0;exitDy=-5;" parent="1" source="pGpMaRgbsiMrkL-crF_X-14" target="pGpMaRgbsiMrkL-crF_X-12" edge="1">
                    <mxGeometry relative="1" as="geometry">
                        <mxPoint x="245" y="2595" as="targetPoint"/>
                    </mxGeometry>
                </mxCell>
                <mxCell id="pGpMaRgbsiMrkL-crF_X-21" value="list[studID,Score]" style="html=1;verticalAlign=bottom;endArrow=open;dashed=1;endSize=8;curved=0;rounded=0;exitX=0;exitY=1;exitDx=0;exitDy=-5;" parent="1" source="pGpMaRgbsiMrkL-crF_X-16" target="pGpMaRgbsiMrkL-crF_X-14" edge="1">
                    <mxGeometry relative="1" as="geometry">
                        <mxPoint x="365" y="2605" as="targetPoint"/>
                    </mxGeometry>
                </mxCell>
                <mxCell id="pGpMaRgbsiMrkL-crF_X-22" value="getScoresOfBattle()" style="html=1;verticalAlign=bottom;endArrow=block;curved=0;rounded=0;entryX=0;entryY=0;entryDx=0;entryDy=5;" parent="1" edge="1">
                    <mxGeometry relative="1" as="geometry">
                        <mxPoint x="307" y="2619" as="sourcePoint"/>
                        <mxPoint x="403" y="2619" as="targetPoint"/>
                    </mxGeometry>
                </mxCell>
                <mxCell id="pGpMaRgbsiMrkL-crF_X-23" value="" style="html=1;points=[];perimeter=orthogonalPerimeter;" parent="1" vertex="1">
                    <mxGeometry x="190" y="2563" width="10" height="30" as="geometry"/>
                </mxCell>
                <mxCell id="pGpMaRgbsiMrkL-crF_X-24" value="check auth" style="edgeStyle=orthogonalEdgeStyle;html=1;align=left;spacingLeft=2;endArrow=block;rounded=0;entryX=1.162;entryY=0.671;entryDx=0;entryDy=0;entryPerimeter=0;" parent="1" target="pGpMaRgbsiMrkL-crF_X-23" edge="1">
                    <mxGeometry relative="1" as="geometry">
                        <mxPoint x="200" y="2543" as="sourcePoint"/>
                        <Array as="points">
                            <mxPoint x="195" y="2543"/>
                            <mxPoint x="225" y="2543"/>
                            <mxPoint x="225" y="2583"/>
                            <mxPoint x="202" y="2583"/>
                        </Array>
                    </mxGeometry>
                </mxCell>
                <mxCell id="pGpMaRgbsiMrkL-crF_X-50" value="client browser" style="shape=umlLifeline;perimeter=lifelinePerimeter;whiteSpace=wrap;html=1;container=1;dropTarget=0;collapsible=0;recursiveResize=0;outlineConnect=0;portConstraint=eastwest;newEdgeStyle={&quot;curved&quot;:0,&quot;rounded&quot;:0};" parent="1" vertex="1">
                    <mxGeometry x="30" y="2850" width="100" height="380" as="geometry"/>
                </mxCell>
                <mxCell id="pGpMaRgbsiMrkL-crF_X-57" value="" style="html=1;points=[[0,0,0,0,5],[0,1,0,0,-5],[1,0,0,0,5],[1,1,0,0,-5]];perimeter=orthogonalPerimeter;outlineConnect=0;targetShapes=umlLifeline;portConstraint=eastwest;newEdgeStyle={&quot;curved&quot;:0,&quot;rounded&quot;:0};" parent="pGpMaRgbsiMrkL-crF_X-50" vertex="1">
                    <mxGeometry x="45" y="80" width="10" height="280" as="geometry"/>
                </mxCell>
                <mxCell id="pGpMaRgbsiMrkL-crF_X-52" value="API gateway" style="shape=umlLifeline;perimeter=lifelinePerimeter;whiteSpace=wrap;html=1;container=1;dropTarget=0;collapsible=0;recursiveResize=0;outlineConnect=0;portConstraint=eastwest;newEdgeStyle={&quot;curved&quot;:0,&quot;rounded&quot;:0};" parent="1" vertex="1">
                    <mxGeometry x="140" y="2850" width="100" height="380" as="geometry"/>
                </mxCell>
                <mxCell id="pGpMaRgbsiMrkL-crF_X-58" value="" style="html=1;points=[[0,0,0,0,5],[0,1,0,0,-5],[1,0,0,0,5],[1,1,0,0,-5]];perimeter=orthogonalPerimeter;outlineConnect=0;targetShapes=umlLifeline;portConstraint=eastwest;newEdgeStyle={&quot;curved&quot;:0,&quot;rounded&quot;:0};" parent="pGpMaRgbsiMrkL-crF_X-52" vertex="1">
                    <mxGeometry x="45" y="90" width="10" height="110" as="geometry"/>
                </mxCell>
                <mxCell id="pGpMaRgbsiMrkL-crF_X-73" value="" style="html=1;points=[[0,0,0,0,5],[0,1,0,0,-5],[1,0,0,0,5],[1,1,0,0,-5]];perimeter=orthogonalPerimeter;outlineConnect=0;targetShapes=umlLifeline;portConstraint=eastwest;newEdgeStyle={&quot;curved&quot;:0,&quot;rounded&quot;:0};" parent="pGpMaRgbsiMrkL-crF_X-52" vertex="1">
                    <mxGeometry x="45" y="230" width="10" height="130" as="geometry"/>
                </mxCell>
                <mxCell id="pGpMaRgbsiMrkL-crF_X-54" value="DBMS Sources" style="shape=umlLifeline;perimeter=lifelinePerimeter;whiteSpace=wrap;html=1;container=1;dropTarget=0;collapsible=0;recursiveResize=0;outlineConnect=0;portConstraint=eastwest;newEdgeStyle={&quot;curved&quot;:0,&quot;rounded&quot;:0};" parent="1" vertex="1">
                    <mxGeometry x="360" y="2850" width="100" height="380" as="geometry"/>
                </mxCell>
                <mxCell id="pGpMaRgbsiMrkL-crF_X-65" value="" style="html=1;points=[[0,0,0,0,5],[0,1,0,0,-5],[1,0,0,0,5],[1,1,0,0,-5]];perimeter=orthogonalPerimeter;outlineConnect=0;targetShapes=umlLifeline;portConstraint=eastwest;newEdgeStyle={&quot;curved&quot;:0,&quot;rounded&quot;:0};" parent="pGpMaRgbsiMrkL-crF_X-54" vertex="1">
                    <mxGeometry x="45" y="130" width="10" height="50" as="geometry"/>
                </mxCell>
                <mxCell id="pGpMaRgbsiMrkL-crF_X-55" value="&lt;div&gt;Leaderboard&lt;/div&gt;&lt;div&gt;Service&lt;br&gt;&lt;/div&gt;" style="shape=umlLifeline;perimeter=lifelinePerimeter;whiteSpace=wrap;html=1;container=1;dropTarget=0;collapsible=0;recursiveResize=0;outlineConnect=0;portConstraint=eastwest;newEdgeStyle={&quot;curved&quot;:0,&quot;rounded&quot;:0};" parent="1" vertex="1">
                    <mxGeometry x="580" y="2850" width="100" height="380" as="geometry"/>
                </mxCell>
                <mxCell id="pGpMaRgbsiMrkL-crF_X-85" value="" style="html=1;points=[[0,0,0,0,5],[0,1,0,0,-5],[1,0,0,0,5],[1,1,0,0,-5]];perimeter=orthogonalPerimeter;outlineConnect=0;targetShapes=umlLifeline;portConstraint=eastwest;newEdgeStyle={&quot;curved&quot;:0,&quot;rounded&quot;:0};" parent="pGpMaRgbsiMrkL-crF_X-55" vertex="1">
                    <mxGeometry x="45" y="271.5" width="10" height="88.5" as="geometry"/>
                </mxCell>
                <mxCell id="pGpMaRgbsiMrkL-crF_X-56" value="DBMS Application" style="shape=umlLifeline;perimeter=lifelinePerimeter;whiteSpace=wrap;html=1;container=1;dropTarget=0;collapsible=0;recursiveResize=0;outlineConnect=0;portConstraint=eastwest;newEdgeStyle={&quot;curved&quot;:0,&quot;rounded&quot;:0};" parent="1" vertex="1">
                    <mxGeometry x="690" y="2850" width="100" height="380" as="geometry"/>
                </mxCell>
                <mxCell id="pGpMaRgbsiMrkL-crF_X-88" value="" style="html=1;points=[[0,0,0,0,5],[0,1,0,0,-5],[1,0,0,0,5],[1,1,0,0,-5]];perimeter=orthogonalPerimeter;outlineConnect=0;targetShapes=umlLifeline;portConstraint=eastwest;newEdgeStyle={&quot;curved&quot;:0,&quot;rounded&quot;:0};" parent="pGpMaRgbsiMrkL-crF_X-56" vertex="1">
                    <mxGeometry x="45" y="290" width="10" height="60" as="geometry"/>
                </mxCell>
                <mxCell id="pGpMaRgbsiMrkL-crF_X-89" style="edgeStyle=orthogonalEdgeStyle;rounded=0;orthogonalLoop=1;jettySize=auto;html=1;curved=0;exitX=1;exitY=0;exitDx=0;exitDy=5;exitPerimeter=0;" parent="pGpMaRgbsiMrkL-crF_X-56" edge="1">
                    <mxGeometry relative="1" as="geometry">
                        <mxPoint x="-55" y="308" as="sourcePoint"/>
                        <mxPoint x="43" y="308" as="targetPoint"/>
                    </mxGeometry>
                </mxCell>
                <mxCell id="pGpMaRgbsiMrkL-crF_X-90" value="setBattleScore(gID, score)" style="edgeLabel;html=1;align=center;verticalAlign=middle;resizable=0;points=[];" parent="pGpMaRgbsiMrkL-crF_X-89" vertex="1" connectable="0">
                    <mxGeometry x="-0.1916" relative="1" as="geometry">
                        <mxPoint x="1" y="-10" as="offset"/>
                    </mxGeometry>
                </mxCell>
                <mxCell id="pGpMaRgbsiMrkL-crF_X-91" style="edgeStyle=orthogonalEdgeStyle;rounded=0;orthogonalLoop=1;jettySize=auto;html=1;curved=0;exitX=1;exitY=0;exitDx=0;exitDy=5;exitPerimeter=0;dashed=1;startArrow=classic;startFill=1;endArrow=none;endFill=0;" parent="pGpMaRgbsiMrkL-crF_X-56" edge="1">
                    <mxGeometry relative="1" as="geometry">
                        <mxPoint x="-55" y="338" as="sourcePoint"/>
                        <mxPoint x="43" y="338" as="targetPoint"/>
                    </mxGeometry>
                </mxCell>
                <mxCell id="pGpMaRgbsiMrkL-crF_X-92" value="ok" style="edgeLabel;html=1;align=center;verticalAlign=middle;resizable=0;points=[];" parent="pGpMaRgbsiMrkL-crF_X-91" vertex="1" connectable="0">
                    <mxGeometry x="-0.1916" relative="1" as="geometry">
                        <mxPoint x="1" y="-10" as="offset"/>
                    </mxGeometry>
                </mxCell>
                <mxCell id="pGpMaRgbsiMrkL-crF_X-59" value="get:tournament/idT/battle/evalSource" style="html=1;verticalAlign=bottom;endArrow=block;curved=0;rounded=0;entryX=0;entryY=0;entryDx=0;entryDy=5;" parent="1" edge="1">
                    <mxGeometry relative="1" as="geometry">
                        <mxPoint x="85" y="2948" as="sourcePoint"/>
                        <mxPoint as="offset"/>
                        <mxPoint x="185" y="2948" as="targetPoint"/>
                    </mxGeometry>
                </mxCell>
                <mxCell id="pGpMaRgbsiMrkL-crF_X-61" value="Manual Eval" style="shape=umlLifeline;perimeter=lifelinePerimeter;whiteSpace=wrap;html=1;container=1;dropTarget=0;collapsible=0;recursiveResize=0;outlineConnect=0;portConstraint=eastwest;newEdgeStyle={&quot;curved&quot;:0,&quot;rounded&quot;:0};" parent="1" vertex="1">
                    <mxGeometry x="250" y="2850" width="100" height="380" as="geometry"/>
                </mxCell>
                <mxCell id="pGpMaRgbsiMrkL-crF_X-62" value="" style="html=1;points=[[0,0,0,0,5],[0,1,0,0,-5],[1,0,0,0,5],[1,1,0,0,-5]];perimeter=orthogonalPerimeter;outlineConnect=0;targetShapes=umlLifeline;portConstraint=eastwest;newEdgeStyle={&quot;curved&quot;:0,&quot;rounded&quot;:0};" parent="pGpMaRgbsiMrkL-crF_X-61" vertex="1">
                    <mxGeometry x="45" y="112" width="10" height="78" as="geometry"/>
                </mxCell>
                <mxCell id="pGpMaRgbsiMrkL-crF_X-80" value="" style="html=1;points=[[0,0,0,0,5],[0,1,0,0,-5],[1,0,0,0,5],[1,1,0,0,-5]];perimeter=orthogonalPerimeter;outlineConnect=0;targetShapes=umlLifeline;portConstraint=eastwest;newEdgeStyle={&quot;curved&quot;:0,&quot;rounded&quot;:0};" parent="pGpMaRgbsiMrkL-crF_X-61" vertex="1">
                    <mxGeometry x="45" y="250" width="10" height="84" as="geometry"/>
                </mxCell>
                <mxCell id="pGpMaRgbsiMrkL-crF_X-60" value="req" style="html=1;verticalAlign=bottom;endArrow=block;curved=0;rounded=0;entryX=0;entryY=0;entryDx=0;entryDy=5;" parent="1" edge="1">
                    <mxGeometry relative="1" as="geometry">
                        <mxPoint x="195" y="2970" as="sourcePoint"/>
                        <mxPoint as="offset"/>
                        <mxPoint x="295" y="2970" as="targetPoint"/>
                    </mxGeometry>
                </mxCell>
                <mxCell id="pGpMaRgbsiMrkL-crF_X-63" value="" style="html=1;verticalAlign=bottom;endArrow=block;curved=0;rounded=0;entryX=0;entryY=0;entryDx=0;entryDy=5;" parent="1" edge="1">
                    <mxGeometry relative="1" as="geometry">
                        <mxPoint x="304" y="2990" as="sourcePoint"/>
                        <mxPoint as="offset"/>
                        <mxPoint x="404" y="2990" as="targetPoint"/>
                    </mxGeometry>
                </mxCell>
                <mxCell id="pGpMaRgbsiMrkL-crF_X-64" value="getGroupSource" style="edgeLabel;html=1;align=center;verticalAlign=middle;resizable=0;points=[];" parent="pGpMaRgbsiMrkL-crF_X-63" vertex="1" connectable="0">
                    <mxGeometry x="0.1673" y="1" relative="1" as="geometry">
                        <mxPoint x="-5" y="-8" as="offset"/>
                    </mxGeometry>
                </mxCell>
                <mxCell id="pGpMaRgbsiMrkL-crF_X-66" value="" style="html=1;verticalAlign=bottom;endArrow=none;curved=0;rounded=0;entryX=0;entryY=0;entryDx=0;entryDy=5;startArrow=classic;startFill=1;endFill=0;dashed=1;" parent="1" edge="1">
                    <mxGeometry relative="1" as="geometry">
                        <mxPoint x="306" y="3021" as="sourcePoint"/>
                        <mxPoint as="offset"/>
                        <mxPoint x="406" y="3021" as="targetPoint"/>
                    </mxGeometry>
                </mxCell>
                <mxCell id="pGpMaRgbsiMrkL-crF_X-67" value="txt sources" style="edgeLabel;html=1;align=center;verticalAlign=middle;resizable=0;points=[];" parent="pGpMaRgbsiMrkL-crF_X-66" vertex="1" connectable="0">
                    <mxGeometry x="0.1673" y="1" relative="1" as="geometry">
                        <mxPoint x="-5" y="-8" as="offset"/>
                    </mxGeometry>
                </mxCell>
                <mxCell id="pGpMaRgbsiMrkL-crF_X-68" value="" style="html=1;verticalAlign=bottom;endArrow=none;curved=0;rounded=0;entryX=0;entryY=0;entryDx=0;entryDy=5;startArrow=classic;startFill=1;endFill=0;dashed=1;" parent="1" edge="1">
                    <mxGeometry relative="1" as="geometry">
                        <mxPoint x="195" y="3031" as="sourcePoint"/>
                        <mxPoint as="offset"/>
                        <mxPoint x="295" y="3031" as="targetPoint"/>
                    </mxGeometry>
                </mxCell>
                <mxCell id="pGpMaRgbsiMrkL-crF_X-69" value="&lt;div&gt;resp 200+&lt;/div&gt;&lt;div&gt;source code txt&lt;br&gt;&lt;/div&gt;" style="edgeLabel;html=1;align=center;verticalAlign=middle;resizable=0;points=[];" parent="pGpMaRgbsiMrkL-crF_X-68" vertex="1" connectable="0">
                    <mxGeometry x="0.1673" y="1" relative="1" as="geometry">
                        <mxPoint x="-5" y="-8" as="offset"/>
                    </mxGeometry>
                </mxCell>
                <mxCell id="pGpMaRgbsiMrkL-crF_X-70" value="" style="html=1;verticalAlign=bottom;endArrow=none;curved=0;rounded=0;entryX=0;entryY=0;entryDx=0;entryDy=5;startArrow=classic;startFill=1;endFill=0;dashed=1;" parent="1" edge="1">
                    <mxGeometry relative="1" as="geometry">
                        <mxPoint x="85" y="3041" as="sourcePoint"/>
                        <mxPoint as="offset"/>
                        <mxPoint x="185" y="3041" as="targetPoint"/>
                    </mxGeometry>
                </mxCell>
                <mxCell id="pGpMaRgbsiMrkL-crF_X-71" value="resp" style="edgeLabel;html=1;align=center;verticalAlign=middle;resizable=0;points=[];" parent="pGpMaRgbsiMrkL-crF_X-70" vertex="1" connectable="0">
                    <mxGeometry x="0.1673" y="1" relative="1" as="geometry">
                        <mxPoint x="-5" y="-8" as="offset"/>
                    </mxGeometry>
                </mxCell>
                <mxCell id="pGpMaRgbsiMrkL-crF_X-72" value="post:tournament/idT/battle/evalSource/score" style="html=1;verticalAlign=bottom;endArrow=block;curved=0;rounded=0;entryX=0;entryY=0;entryDx=0;entryDy=5;" parent="1" edge="1">
                    <mxGeometry relative="1" as="geometry">
                        <mxPoint x="85" y="3090" as="sourcePoint"/>
                        <mxPoint as="offset"/>
                        <mxPoint x="185" y="3090" as="targetPoint"/>
                    </mxGeometry>
                </mxCell>
                <mxCell id="pGpMaRgbsiMrkL-crF_X-74" value="req" style="html=1;verticalAlign=bottom;endArrow=block;curved=0;rounded=0;" parent="1" target="pGpMaRgbsiMrkL-crF_X-61" edge="1">
                    <mxGeometry relative="1" as="geometry">
                        <mxPoint x="195" y="3110" as="sourcePoint"/>
                        <mxPoint as="offset"/>
                        <mxPoint x="280" y="3110" as="targetPoint"/>
                    </mxGeometry>
                </mxCell>
                <mxCell id="pGpMaRgbsiMrkL-crF_X-79" value="Message Broker" style="shape=umlLifeline;perimeter=lifelinePerimeter;whiteSpace=wrap;html=1;container=1;dropTarget=0;collapsible=0;recursiveResize=0;outlineConnect=0;portConstraint=eastwest;newEdgeStyle={&quot;curved&quot;:0,&quot;rounded&quot;:0};" parent="1" vertex="1">
                    <mxGeometry x="470" y="2850" width="100" height="380" as="geometry"/>
                </mxCell>
                <mxCell id="pGpMaRgbsiMrkL-crF_X-81" value="" style="html=1;points=[[0,0,0,0,5],[0,1,0,0,-5],[1,0,0,0,5],[1,1,0,0,-5]];perimeter=orthogonalPerimeter;outlineConnect=0;targetShapes=umlLifeline;portConstraint=eastwest;newEdgeStyle={&quot;curved&quot;:0,&quot;rounded&quot;:0};" parent="pGpMaRgbsiMrkL-crF_X-79" vertex="1">
                    <mxGeometry x="45" y="260.5" width="10" height="69.5" as="geometry"/>
                </mxCell>
                <mxCell id="pGpMaRgbsiMrkL-crF_X-82" value="write(ScoringsTopic, msg: newScoreForGroup)" style="html=1;verticalAlign=bottom;endArrow=block;curved=0;rounded=0;" parent="1" target="pGpMaRgbsiMrkL-crF_X-81" edge="1">
                    <mxGeometry relative="1" as="geometry">
                        <mxPoint x="306" y="3120" as="sourcePoint"/>
                        <mxPoint as="offset"/>
                        <mxPoint x="410" y="3120" as="targetPoint"/>
                    </mxGeometry>
                </mxCell>
                <mxCell id="pGpMaRgbsiMrkL-crF_X-83" value="" style="html=1;verticalAlign=bottom;endArrow=none;curved=0;rounded=0;entryX=0;entryY=0;entryDx=0;entryDy=5;startArrow=classic;startFill=1;endFill=0;" parent="1" edge="1">
                    <mxGeometry relative="1" as="geometry">
                        <mxPoint x="525" y="3130" as="sourcePoint"/>
                        <mxPoint as="offset"/>
                        <mxPoint x="625" y="3130" as="targetPoint"/>
                    </mxGeometry>
                </mxCell>
                <mxCell id="pGpMaRgbsiMrkL-crF_X-84" value="read(ScoringTopic)" style="edgeLabel;html=1;align=center;verticalAlign=middle;resizable=0;points=[];" parent="pGpMaRgbsiMrkL-crF_X-83" vertex="1" connectable="0">
                    <mxGeometry x="0.1673" y="1" relative="1" as="geometry">
                        <mxPoint x="-5" y="-8" as="offset"/>
                    </mxGeometry>
                </mxCell>
                <mxCell id="pGpMaRgbsiMrkL-crF_X-86" style="edgeStyle=orthogonalEdgeStyle;rounded=0;orthogonalLoop=1;jettySize=auto;html=1;curved=0;exitX=1;exitY=0;exitDx=0;exitDy=5;exitPerimeter=0;dashed=1;startArrow=none;startFill=0;endArrow=classic;endFill=1;" parent="1" edge="1">
                    <mxGeometry relative="1" as="geometry">
                        <mxPoint x="525" y="3170" as="sourcePoint"/>
                        <mxPoint x="623" y="3170" as="targetPoint"/>
                    </mxGeometry>
                </mxCell>
                <mxCell id="pGpMaRgbsiMrkL-crF_X-87" value="msg" style="edgeLabel;html=1;align=center;verticalAlign=middle;resizable=0;points=[];" parent="pGpMaRgbsiMrkL-crF_X-86" vertex="1" connectable="0">
                    <mxGeometry x="-0.1916" relative="1" as="geometry">
                        <mxPoint x="12" y="-10" as="offset"/>
                    </mxGeometry>
                </mxCell>
                <mxCell id="2" value="resp 200" style="edgeStyle=none;html=1;curved=0;rounded=0;endArrow=open;endFill=0;dashed=1;" edge="1" parent="1" source="yxxKlvif9OGhSchaogqb-150">
                    <mxGeometry relative="1" as="geometry">
                        <mxPoint x="200" y="1050" as="targetPoint"/>
                    </mxGeometry>
                </mxCell>
            </root>
        </mxGraphModel>
    </diagram>
</mxfile>